<?xml version="1.0" encoding="UTF-8" standalone="no"?>
<!-- Created with Inkscape (http://www.inkscape.org/) -->

<svg
        xmlns:dc="http://purl.org/dc/elements/1.1/"
        xmlns:cc="http://creativecommons.org/ns#"
        xmlns:rdf="http://www.w3.org/1999/02/22-rdf-syntax-ns#"
        xmlns="http://www.w3.org/2000/svg"
        xmlns:sodipodi="http://sodipodi.sourceforge.net/DTD/sodipodi-0.dtd"
        xmlns:inkscape="http://www.inkscape.org/namespaces/inkscape"
        width="30mm"
        height="10mm"
        viewBox="0 0 300 100"
        version="1.1"
        id="svg4569"
        inkscape:version="0.92.3 (2405546, 2018-03-11)"
        sodipodi:docname="drawing.svg">
    <defs>

    </defs>
    <sodipodi:namedview
            id="base"
            pagecolor="#ffffff"
            bordercolor="#666666"
            borderopacity="1.0"
            inkscape:pageopacity="1"
            inkscape:pageshadow="2"
            inkscape:zoom="0.49497475"
            inkscape:cx="725.97702"
            inkscape:cy="272.43567"
            inkscape:document-units="mm"
            inkscape:current-layer="layer1"
            showgrid="false"
            showborder="true"
            inkscape:showpageshadow="false"
            inkscape:window-width="1853"
            inkscape:window-height="1025"
            inkscape:window-x="67"
            inkscape:window-y="27"
            inkscape:window-maximized="1"/>
    <metadata
            id="metadata4566">
        <rdf:RDF>
            <cc:Work
                    rdf:about="">
                <dc:format>image/svg+xml</dc:format>
                <dc:type
                        rdf:resource="http://purl.org/dc/dcmitype/StillImage"/>
                <dc:title></dc:title>
            </cc:Work>
        </rdf:RDF>
    </metadata>
    <g
            inkscape:label="Layer 1"
            inkscape:groupmode="layer"
            id="layer1"
            transform="translate(0,-197)">
        <path
                style="fill:#2b0000;fill-opacity:1;stroke:#000000;stroke-width:0.26458332;stroke-opacity:1"
                id="path5140"
                d="m 41.898263,235.81382 c 0.04324,-1.49557 0.0265,-2.99217 0.01908,-4.48816 0.05009,-1.16266 -0.07192,-2.31109 -0.348485,-3.43945 -0.277329,-1.11394 -0.759048,-2.14521 -1.391706,-3.09762 -0.549979,-0.94452 -1.279009,-1.74185 -2.06126,-2.49501 -1.044491,-0.7628 -2.148814,-1.44111 -3.239765,-2.13546 -1.082289,-0.56512 -2.199187,-1.07369 -3.324307,-1.54969 -1.054378,-0.36538 -2.148305,-0.61334 -3.197082,-0.99365 -1.012455,-0.38155 -2.082208,-0.50583 -3.153765,-0.57357 -1.061705,-0.0479 -2.124895,-0.0404 -3.187386,-0.0384 -0.92068,-0.0404 -1.763491,0.31387 -2.584002,0.67394 -2.384379,1.33609 -5.537701,3.09575 5.629552,-3.24367 0.900734,-0.51132 -0.843116,0.55765 -1.054445,0.7258 -0.536042,0.38357 -0.984646,0.88203 -1.345361,1.43085 -0.453119,0.53297 -0.720602,1.17903 -1.083475,1.77239 -0.515088,0.77969 -0.876625,1.6556 -1.146909,2.54709 -0.264476,1.01208 -0.298751,2.06133 -0.325418,3.10113 -0.0766,1.06366 0.02639,2.10215 0.204079,3.14817 0.242478,1.0763 0.617747,2.11341 0.935644,3.16772 0.30102,0.8537 0.720805,1.65363 1.066057,2.48756 0.337766,0.69025 0.793814,1.30918 1.255254,1.9216 0.569803,0.4781 0.904904,1.15538 1.398519,1.70163 0.691572,0.71341 1.287655,1.5168 1.844457,2.33833 0.397746,0.70872 1.103514,1.12862 1.702708,1.64248 0.626848,0.55163 1.343641,0.9639 1.999456,1.47714 0.65223,0.58671 1.419262,1.04172 2.199037,1.43882 0.892953,0.53979 1.855314,0.96537 2.737273,1.51919 0.720799,0.40726 1.508702,0.69717 2.212803,1.1303 0.719582,0.32867 1.374786,0.7427 2.149621,0.93547 0.654256,0.41712 1.454769,0.45152 2.130366,0.80007 0.699315,0.29757 1.327526,0.7915 1.862265,1.32978 0.559668,0.35903 0.991605,0.83721 1.465469,1.28915 0.467989,0.66065 1.093935,1.15994 1.608791,1.78023 0.584538,0.71796 0.990325,1.54141 1.464492,2.33079 0.56986,1.09773 1.021758,2.24646 1.536065,3.36945 0.395714,0.99669 0.809239,1.98675 1.275194,2.95284 0.540512,1.02826 0.791435,2.14725 0.932156,3.29 0.111324,1.1037 0.136642,2.20707 -0.02297,3.30542 -0.135948,1.12533 -0.416187,2.21143 -0.800803,3.27511 -0.459994,1.18101 -1.113089,2.27808 -1.837783,3.31389 -0.676765,0.84018 -1.415426,1.64069 -2.231205,2.34791 -3.002036,2.18298 -5.989259,4.45135 -9.657987,4.80124 -1.070983,0.0738 -2.145409,0.0638 -3.21826,0.0613 -1.372539,0.075 -2.720279,-0.15925 -4.080306,-0.30162 -1.465992,-0.11317 -2.910408,-0.40516 -4.302859,-0.86861 -1.201731,-0.34067 -2.325201,-0.89656 -3.497376,-1.32171 -1.356309,-0.58507 -2.784046,-0.97026 -4.139144,-1.5573 -0.975253,-0.39319 -1.892895,-0.91252 -2.819492,-1.40575 -0.852453,-0.34832 -1.695634,-0.73844 -2.427043,-1.30332 -0.682141,-0.49955 -1.405922,-0.92504 -2.025753,-1.50092 -0.862189,-0.80731 -1.6187328,-1.71421 -2.429259,-2.56926 -0.7180905,-0.72251 -1.2958135,-1.55633 -1.9319006,-2.34577 -0.5736757,-0.83604 -1.1916955,-1.63774 -1.7863085,-2.45771 -0.5779492,-0.79937 -1.10876,-1.64372 -1.500886,-2.55025 -0.051721,-0.13502 -0.103442,-0.27003 -0.1551627,-0.40505 0,0 6.9505488,-3.8517 6.9505488,-3.8517 v 0 c 0.04233,0.12433 0.08467,0.24866 0.127003,0.37299 0.353379,0.85666 0.864833,1.64871 1.40658,2.39744 0.587333,0.81265 1.196049,1.60846 1.773909,2.4282 0.605387,0.78623 1.200511,1.5754 1.879391,2.30251 0.776647,0.85575 1.544119,1.72027 2.414875,2.48458 0.627672,0.52143 1.327304,0.94909 1.982257,1.43541 0.747986,0.49198 1.569053,0.83418 2.373152,1.22184 0.887987,0.49933 1.79881,0.96897 2.741051,1.35626 1.358155,0.54049 2.749275,0.99192 4.102833,1.54475 1.164694,0.44159 2.319629,0.91102 3.51335,1.27175 1.347813,0.42726 2.753632,0.64092 4.160091,0.76454 1.358524,0.13819 2.714376,0.25331 4.081677,0.19965 1.053163,-0.005 2.111414,-0.002 3.156442,-0.15037 0.495715,-0.0914 0.973251,-0.19062 1.438933,-0.39161 0.14858,-0.0641 0.574768,-0.29707 0.435235,-0.2151 -9.94333,5.8411 -8.243266,4.82448 -5.957366,3.45417 0.956381,-0.49349 1.581332,-1.40173 2.367671,-2.11496 0.749546,-0.96333 1.386441,-2.00057 1.915464,-3.10061 0.376264,-1.02597 0.765453,-2.03942 0.859864,-3.14068 0.193562,-1.03525 0.228423,-2.05977 0.119796,-3.11213 -0.100066,-1.05944 -0.290677,-2.10089 -0.795732,-3.05235 -0.479364,-0.96841 -0.906804,-1.96327 -1.292526,-2.97233 -0.485183,-1.09998 -0.910239,-2.22421 -1.48948,-3.28084 -0.463849,-0.74662 -0.850607,-1.53472 -1.41772,-2.21371 -0.5135,-0.58614 -1.102132,-1.0987 -1.582663,-1.7147 -0.456462,-0.4619 -0.958048,-0.86006 -1.453221,-1.28055 -0.51113,-0.45209 -1.063723,-0.85733 -1.714979,-1.08307 -0.702683,-0.2176 -1.390801,-0.46875 -2.071931,-0.74598 -0.779976,-0.28672 -1.504543,-0.69783 -2.245929,-1.07029 -0.74571,-0.37012 -1.490477,-0.74369 -2.215377,-1.15316 -0.900872,-0.50188 -1.795516,-1.01317 -2.706888,-1.49623 -0.805303,-0.45016 -1.602692,-0.92288 -2.297778,-1.5355 -0.66096,-0.50997 -1.371025,-0.95273 -1.997321,-1.5094 -0.675763,-0.54306 -1.405066,-1.05356 -1.816273,-1.84245 -0.526718,-0.80645 -1.139426,-1.55365 -1.812953,-2.24243 -0.481859,-0.58054 -0.876934,-1.22905 -1.424423,-1.75437 -0.491137,-0.67354 -0.996639,-1.33902 -1.351346,-2.09784 -0.342032,-0.86389 -0.780579,-1.68582 -1.084084,-2.56732 -0.311976,-1.08782 -0.708011,-2.14858 -0.981906,-3.24835 -0.186946,-1.09141 -0.370307,-2.16657 -0.274036,-3.2806 0.01587,-1.09267 0.03554,-2.1918 0.240695,-3.26883 0.219289,-0.96835 0.579364,-1.88223 1.015213,-2.77196 0.421006,-0.58837 0.740001,-1.1856 1.049002,-1.83859 0.478856,-0.47986 0.745841,-1.16843 1.281103,-1.62077 0.461507,-0.32362 0.241197,-0.14167 0.657901,-0.5495 2.530314,-1.95411 5.470865,-3.45349 8.395362,-4.78284 0.878389,-0.32752 1.815123,-0.45277 2.751351,-0.41723 1.075936,0.002 2.153743,0.002 3.226623,0.0935 1.112443,0.11952 2.20668,0.33348 3.257222,0.7304 1.083961,0.33003 2.180312,0.6332 3.232721,1.05556 1.141979,0.51617 2.304352,1.0046 3.375123,1.66048 1.136264,0.71741 2.299155,1.41447 3.346707,2.25655 0.82311,0.79288 1.551326,1.66341 2.135685,2.65046 0.682413,1.02256 1.221705,2.12317 1.531299,3.31857 0.330274,1.18095 0.485558,2.40337 0.423365,3.63026 -0.0074,1.4895 -0.02447,2.97965 0.01908,4.46873 0,0 -7.075112,3.60494 -7.075112,3.60494 z"
                inkscape:connector-curvature="0"/>
        <path
                style="fill:#2b0000;fill-opacity:1;stroke:#000000;stroke-width:0.26458332;stroke-opacity:1"
                id="path5142"
                d="m 58.717137,242.28149 c 1.586913,0.0756 3.156299,0.0145 4.731898,-0.16442 1.616469,-0.20804 3.245144,-0.27921 4.872691,-0.33066 1.517174,-0.044 3.03521,-0.0291 4.552738,-0.0181 2.007812,0.0138 4.015632,0.009 6.023441,-0.001 1.289529,-0.008 2.579074,-0.0123 3.868624,-0.0145 1.220467,0.0922 2.406898,-0.20656 3.609247,-0.36398 0.931315,-0.21142 1.94238,0.002 2.846353,-0.29233 0.128249,-0.0371 0.256498,-0.0743 0.384749,-0.11144 0,0 -6.318808,4.8202 -6.318808,4.8202 v 0 c -0.136395,0.0258 -0.272788,0.0516 -0.409181,0.0774 -0.94987,0.0569 -1.901256,0.10451 -2.843509,0.2465 -1.221173,0.1761 -2.438844,0.35009 -3.677763,0.27999 -1.275668,-0.002 -2.551325,-0.007 -3.826965,-0.0161 -2.003574,-0.0121 -4.007173,-0.0196 -6.010773,-0.007 -1.52119,0.0115 -3.042629,0.0165 -4.563372,0.0586 -1.613323,0.0583 -3.223302,0.16993 -4.826433,0.36487 -1.61008,0.15238 -3.221268,0.12141 -4.837004,0.13997 0,0 6.424067,-4.66735 6.424067,-4.66735 z"
                inkscape:connector-curvature="0"/>
        <path
                style="fill:#2b0000;fill-opacity:1;stroke:#000000;stroke-width:0.26458332;stroke-opacity:1"
                id="path5144"
                d="m 77.256872,225.73116 c -0.226777,1.6419 -0.58116,3.26123 -0.812647,4.90254 -0.134694,1.22029 -0.372792,2.42957 -0.629293,3.6297 -0.324572,1.03981 -0.45403,2.11754 -0.628152,3.18746 -0.25346,1.06307 -0.378357,2.14886 -0.620805,3.21365 -0.220316,1.06741 -0.410824,2.13731 -0.65159,3.20079 -0.234608,1.05613 -0.268901,2.13782 -0.465007,3.20003 -0.173393,1.08017 -0.420408,2.14413 -0.721509,3.19545 -0.340262,0.91026 -0.626843,1.83996 -0.906624,2.77035 -0.213836,0.91884 -0.521017,1.8098 -0.776038,2.71755 -0.367795,0.81259 -0.501277,1.68227 -0.654897,2.55136 -0.258659,0.8539 -0.421542,1.72325 -0.499782,2.61095 -0.05864,0.75555 -0.0682,1.51326 -0.07462,2.27065 0.0506,1.04922 -0.04242,2.0775 -0.216194,3.11032 -0.207878,1.05788 -0.222917,2.13755 -0.340863,3.20542 -0.205208,1.05318 -0.362098,2.11107 -0.445497,3.18074 -0.07887,0.89386 -0.144595,1.72791 0.246533,2.54649 0.45596,0.59633 1.118071,1.00138 1.735852,1.41503 0.69681,0.33598 1.491695,0.35588 2.251454,0.38664 0.74464,0.0229 1.489461,0.004 2.234199,0.001 3.933164,-1.99962 -8.811376,5.15979 -5.372327,3.08582 18.760564,-10.66742 0.680651,-0.35578 0.513638,-0.26097 -0.118157,0.0671 0.23114,-0.14292 0.345125,-0.21686 0.439608,-0.28517 0.829371,-0.59401 1.219415,-0.94324 0.659325,-0.60867 1.310526,-1.23044 1.922229,-1.8873 0.63821,-0.57783 1.130713,-1.29189 1.639102,-1.98131 0.544576,-0.65379 1.117767,-1.27694 1.608347,-1.9739 0.569899,-0.73209 1.068228,-1.51525 1.599054,-2.27545 0.08721,-0.10768 0.174418,-0.21535 0.261625,-0.32302 0,0 7.297235,-3.14108 7.297235,-3.14108 v 0 c -0.08357,0.11809 -0.167145,0.23618 -0.250717,0.35427 -0.651033,0.66472 -1.06612,1.50839 -1.607132,2.26126 -0.39017,0.43814 -0.648155,0.96804 -1.049329,1.40009 -0.08849,0.0953 -0.206912,0.15992 -0.293743,0.25673 -0.09497,0.10588 -0.165325,0.23149 -0.247986,0.34723 -0.62515,0.61371 -1.022731,1.40187 -1.603476,2.05793 -0.70418,0.56992 -1.269206,1.30454 -1.929244,1.92589 -0.404246,0.33416 -0.73861,0.71883 -1.161134,1.03018 -3.892881,2.8686 -14.881662,8.19822 -0.825132,0.50561 -2.770413,1.60571 -5.271233,4.29856 -8.502634,4.45917 -0.75387,0.004 -1.508636,-0.006 -2.260926,-0.058 -0.875215,-0.0918 -1.759754,-0.22291 -2.498294,-0.74104 -0.702759,-0.52354 -1.472191,-0.99302 -1.937003,-1.76161 -0.511927,-1.04861 -0.526127,-1.76385 -0.420513,-2.91982 0.06374,-1.08855 0.17391,-2.17413 0.417618,-3.23922 0.208664,-1.05821 0.116496,-2.15569 0.334343,-3.21728 0.167746,-0.99565 0.359752,-1.9685 0.260586,-2.98597 -0.0042,-0.77627 -0.02482,-1.55498 0.04279,-2.3292 0.07639,-0.91804 0.14334,-1.84524 0.446071,-2.72324 0.282731,-0.8525 0.192924,-1.80587 0.617104,-2.62665 0.195762,-0.42302 0.251939,-0.84606 0.392067,-1.28884 0.09145,-0.28897 0.239559,-0.55861 0.322945,-0.85002 0.04931,-0.17232 0.06765,-0.35205 0.101471,-0.52807 0.240498,-0.95578 0.554561,-1.89431 0.878559,-2.8232 0.429985,-0.97031 0.581229,-2.05465 0.779764,-3.09115 0.222052,-1.0665 0.291611,-2.13813 0.458396,-3.21459 0.22338,-1.07215 0.48876,-2.12763 0.64607,-3.21294 0.256207,-1.05726 0.398177,-2.12539 0.631831,-3.1884 0.253706,-1.06292 0.24298,-2.18227 0.614698,-3.22395 0.335749,-1.15791 0.499814,-2.38049 0.693132,-3.56739 0.225552,-1.63219 0.616969,-3.23727 0.783008,-4.87527 0,0 7.108846,-3.51148 7.108846,-3.51148 z"
                inkscape:connector-curvature="0"/>
        <path
                style="fill:#2b0000;fill-opacity:1;stroke:#000000;stroke-width:0.26458332;stroke-opacity:1"
                id="path5146"
                d="m 131.822,213.92708 c -0.0721,2.38432 -0.0656,4.77035 -0.0627,7.15552 -0.0718,2.11305 -0.26521,4.21922 -0.38481,6.32978 -0.0725,1.30079 -0.0918,2.60332 -0.0967,3.90582 -0.006,1.62086 -0.0234,3.24161 -0.0301,4.86247 -0.13126,2.04929 -0.27655,4.10102 -0.48772,6.14389 -0.20817,2.09852 -0.48655,4.18962 -0.86954,6.26352 -0.35589,1.7928 -0.65487,3.59771 -0.92743,5.4051 -0.2712,1.67966 -0.27975,3.3829 -0.41648,5.07444 -0.16212,1.83383 -0.40558,3.65611 -0.66113,5.47863 -0.23122,1.68082 -0.30376,3.37653 -0.33898,5.07095 -0.026,1.42193 -0.0245,2.84432 -0.0191,4.26645 0.0383,0.84305 -0.004,1.67627 -0.11435,2.51164 0,0 -7.10691,3.48778 -7.10691,3.48778 v 0 c 0.13801,-0.80305 0.24402,-1.5936 0.18351,-2.41244 0.002,-1.42943 -0.005,-2.85889 0.0173,-4.28822 0.0481,-1.72466 0.11978,-3.45043 0.32914,-5.16438 0.24256,-1.81385 0.51807,-3.61972 0.67375,-5.44434 0.17009,-1.70248 0.11162,-3.42495 0.40038,-5.11804 0.27062,-1.81829 0.54764,-3.63813 0.91484,-5.43892 0.42947,-2.04957 0.72221,-4.12711 0.92124,-6.21106 0.21801,-2.01591 0.31969,-4.04463 0.51232,-6.06336 -0.008,-1.61215 -0.0318,-3.22414 -0.0312,-4.83633 0.009,-1.32049 0.009,-2.64234 0.10152,-3.96031 0.15047,-2.11013 0.38406,-4.21376 0.49052,-6.32705 0.003,-2.36386 0.0102,-4.72864 -0.0627,-7.09161 0,0 7.06525,-3.59993 7.06525,-3.59993 z"
                inkscape:connector-curvature="0"/>
        <path
                style="fill:#2b0000;fill-opacity:1;stroke:#000000;stroke-width:0.26458332;stroke-opacity:1"
                id="path5148"
                d="m 134.01973,214.27005 c 1.47879,-0.37754 2.98583,-0.61103 4.50364,-0.75413 1.19525,-0.0517 2.41101,-0.20883 3.59576,-0.002 1.44344,0.19922 2.66573,1.03321 3.95608,1.64225 1.37257,0.71933 2.69019,1.52489 4.05527,2.25896 1.16583,0.77751 2.38823,1.46477 3.55075,2.24787 1.12896,0.58528 2.06515,1.43756 3.04289,2.23093 0.75234,0.70649 1.55227,1.37467 2.24517,2.14296 0.93045,1.1494 1.79858,2.35491 2.60591,3.59458 0.94109,1.5254 1.88674,3.0476 2.70001,4.64588 0.72396,1.26273 1.4758,2.48677 1.92815,3.87728 0.35358,1.14897 0.36433,2.2956 0.11621,3.46068 -0.4104,1.36035 -1.39051,2.4157 -2.25319,3.50708 -0.85882,1.01922 -1.7222,2.02965 -2.73745,2.8963 -3.05285,2.2474 -6.41055,4.09018 -9.91996,5.50998 -1.24174,0.39897 -2.39126,1.02258 -3.62779,1.43399 -1.09339,0.49215 -2.20822,0.90914 -3.33575,1.31472 -1.42069,0.43577 -2.88339,0.70757 -4.32282,1.07421 -1.38523,0.26296 -2.74233,0.62933 -4.1183,0.93085 -1.1064,0.25084 -2.18354,0.56705 -3.31513,0.70918 -1.07319,0.15043 -2.12031,0.42299 -3.20395,0.54156 -1.02295,0.33041 -2.08547,0.46661 -3.14919,0.58157 -0.7846,0.0591 -1.57199,0.0728 -2.35858,0.0719 -0.0806,0.0447 -0.16111,0.0894 -0.24167,0.13402 0,0 6.34093,-4.82291 6.34093,-4.82291 v 0 c 0.11264,0.002 0.22528,0.003 0.33791,0.005 0.76349,-0.0121 1.52838,-0.0282 2.28663,-0.12752 1.05732,-0.13543 2.08551,-0.39883 3.13365,-0.58377 1.06857,-0.16603 2.11698,-0.43758 3.1934,-0.55492 1.10183,-0.20215 2.17062,-0.53543 3.27049,-0.74802 1.35745,-0.32675 2.72609,-0.59405 4.08418,-0.91791 1.44381,-0.33631 2.89585,-0.66338 4.29486,-1.16004 1.12548,-0.40853 2.21442,-0.90571 3.3379,-1.32013 1.20271,-0.48117 2.3868,-1.00907 3.60366,-1.45559 0.61889,-0.2595 0.53231,-0.21588 1.10992,-0.48455 0.17413,-0.081 0.68604,-0.34429 0.5207,-0.24658 -11.0937,6.55601 -7.59803,4.50673 -5.27583,3.04173 1.11821,-0.73725 1.94358,-1.74948 2.84656,-2.72382 0.82219,-1.03237 1.73328,-2.02506 2.3465,-3.19953 0.35216,-1.0149 0.37518,-2.023 0.0952,-3.0657 -0.39346,-1.36537 -1.13281,-2.54752 -1.83066,-3.77539 -0.80145,-1.5701 -1.67975,-3.09773 -2.64252,-4.57517 -0.80581,-1.19237 -1.65929,-2.35964 -2.59264,-3.45525 -0.68947,-0.72622 -1.46113,-1.37763 -2.19878,-2.05303 -0.92946,-0.80373 -1.87909,-1.57718 -2.9581,-2.17781 -1.15979,-0.75011 -2.35436,-1.44665 -3.52318,-2.18174 -1.34966,-0.72901 -2.62347,-1.58729 -4.01204,-2.24341 -1.23302,-0.60209 -2.44531,-1.30034 -3.84685,-1.39546 -1.15855,-0.0493 -2.32011,0.0181 -3.47395,0.12534 -1.5055,0.17697 -3.00244,0.43854 -4.45325,0.8877 0,0 6.28924,-4.84241 6.28924,-4.84241 z"
                inkscape:connector-curvature="0"/>
        <path
                style="fill:#2b0000;fill-opacity:1;stroke:#000000;stroke-width:0.26458332;stroke-opacity:1"
                id="path5150"
                d="m 188.17324,248.63782 c -1.13784,-1.03208 -2.58457,-1.48585 -3.95279,-2.09467 -1.18934,-0.4921 -2.47369,-0.58542 -3.7439,-0.65212 -1.15406,-0.0859 -2.27207,-0.0443 -3.40281,0.1775 -1.0837,0.0764 -2.03893,0.46565 -3.00713,0.91228 -2.39529,1.34528 -5.68831,3.1806 5.5048,-3.17435 0.1352,-0.0768 -0.26092,0.16912 -0.39191,0.25288 -0.62676,0.40076 -0.21217,0.12322 -0.85355,0.56551 -0.89327,0.67762 -1.76658,1.38004 -2.6497,2.07061 -0.73694,0.63464 -1.42679,1.32674 -2.08432,2.04307 -0.60609,0.62106 -1.17712,1.27319 -1.81176,1.86687 -0.61668,0.64494 -1.17215,1.35276 -1.62344,2.12272 -0.44245,0.67554 -0.91397,1.30496 -1.22618,2.0531 -0.31896,0.73552 -0.69794,1.44826 -0.97314,2.2016 -0.22454,0.96033 -0.33877,1.94057 -0.53179,2.90931 -0.20151,1.01054 -0.27085,2.03917 -0.30804,3.06676 -0.11463,0.98289 0.10175,1.92613 0.27395,2.88448 0.0906,0.93183 0.22866,1.84012 0.44219,2.75097 0.16557,0.76289 0.17138,1.535 0.61877,2.19473 0.50309,0.43462 1.01615,0.84799 1.54228,1.2578 0.85414,0.5282 1.71456,1.04269 2.65709,1.3972 0.93192,0.29591 1.91189,0.35697 2.88261,0.38297 0.8273,-0.1091 1.534,-0.52586 2.30261,-0.80083 0.27383,-0.20762 0.68092,-0.0993 0.97054,-0.24141 0.0773,-0.0379 0.11434,-0.13068 0.18419,-0.18095 0.18354,-0.13209 0.32552,-0.14704 0.5422,-0.20517 -2.19371,1.24365 -8.67653,5.1339 -6.58112,3.73095 2.27135,-1.52075 4.73766,-2.72789 7.11028,-4.08524 0.0897,-0.0513 0.36556,-0.19235 0.27622,-0.14049 -9.31776,5.40875 -8.40425,5.1665 -6.12221,3.44091 13.71853,-7.92372 5.2674,-3.03723 0.47779,-0.29045 -0.0698,0.0401 0.13811,-0.083 0.20386,-0.12948 0.24499,-0.17312 0.4481,-0.37652 0.65432,-0.59262 0.60212,-0.41552 1.11857,-0.92281 1.55691,-1.50837 0.49454,-0.56432 0.80714,-1.24931 1.18645,-1.89043 0.38153,-0.63124 0.64763,-1.31273 0.95392,-1.98132 0.3814,-0.76461 0.75676,-1.50324 0.93993,-2.34189 0.17297,-0.76686 0.41811,-1.51276 0.59767,-2.27865 0.31851,-0.7513 0.47178,-1.53836 0.55111,-2.34611 0.0614,-0.92428 0.27866,-1.83223 0.47982,-2.73462 0.2978,-0.81711 0.47624,-1.65801 0.58196,-2.51882 0.1347,-0.96064 0.42986,-1.88669 0.71442,-2.81069 0.27816,-0.71573 0.34476,-1.47121 0.44355,-2.22428 0.12585,-0.8188 0.48415,-1.56167 0.74449,-2.33855 0.0311,-0.12091 0.0648,-0.2412 0.0934,-0.36273 0.0469,-0.19898 0.12309,-0.83877 0.12847,-0.84129 7.31068,-3.42188 7.54362,-5.72847 7.0444,-2.6714 -0.18528,1.33589 -0.35868,2.66872 -0.59607,3.99697 -0.10514,1.05119 -0.36679,2.06637 -0.61051,3.09009 -0.1952,0.74372 -0.23143,1.51239 -0.2602,2.27666 -0.0182,0.92835 -0.0208,1.857 -0.0213,2.78554 5.3e-4,1.08362 0.002,2.16723 0.003,3.25084 -0.0376,0.95818 -0.0131,1.89194 0.21114,2.82524 0.29563,0.6361 0.72931,1.20409 1.0618,1.83263 0.30728,0.36863 0.64124,0.71957 1.01508,1.02239 0.37678,0.24528 0.73588,0.47006 1.14225,0.67713 0.44984,0.18326 0.82603,0.48556 1.29049,0.66958 0.36603,0.3251 0.77223,0.65706 1.2126,0.88987 0.62981,0.10956 0.91316,0.73067 1.43387,1.01574 0.0773,0.0374 0.15459,0.0749 0.23188,0.1123 0,0 -6.68042,4.34407 -6.68042,4.34407 v 0 c -0.0882,-0.0568 -0.17639,-0.11356 -0.26458,-0.17033 -0.46305,-0.36521 -0.85124,-0.78504 -1.42492,-0.98965 -0.3797,-0.27495 -0.77186,-0.54805 -1.16483,-0.79244 -0.44434,-0.23258 -0.84601,-0.53281 -1.31322,-0.72106 -0.42921,-0.25149 -0.87113,-0.48713 -1.2355,-0.83151 -0.41887,-0.40049 -0.85902,-0.78201 -1.16495,-1.28196 -0.3346,-0.7017 -0.83501,-1.29212 -1.13783,-2.00436 -0.23037,-0.99463 -0.34772,-1.97497 -0.27357,-2.99968 -1.3e-4,-1.08307 -1.4e-4,-2.16615 -0.004,-3.24922 -0.004,-0.93129 -0.0172,-1.86249 -0.009,-2.79375 0.0101,-0.81215 0.0358,-1.6302 0.18771,-2.43007 0.25249,-1.01971 0.59062,-2.01155 0.67043,-3.06575 0.23814,-1.31909 0.48358,-2.62723 0.5776,-3.96685 0.46089,-3.15341 -0.0555,-0.4977 7.27531,-4.29786 0.0408,-0.0212 -0.049,0.0799 -0.0587,0.12486 -0.0817,0.37637 -0.0574,0.77546 -0.18632,1.14391 -0.18512,0.8027 -0.57925,1.49406 -0.75887,2.29378 -0.24327,0.74024 -0.0755,1.57141 -0.42319,2.29638 -0.28746,0.88212 -0.56459,1.75745 -0.7764,2.66081 -0.0769,0.90051 -0.19604,1.80801 -0.52332,2.65632 -0.31768,0.80888 -0.40519,1.73879 -0.54419,2.59016 -0.0736,0.84922 -0.12001,1.71954 -0.4567,2.51474 -0.33475,0.66787 -0.29799,1.49767 -0.66975,2.16879 -0.11876,0.90142 -0.33701,1.7373 -0.85309,2.5014 -0.26422,0.68168 -0.51082,1.40829 -0.93567,2.00323 -0.1364,0.37674 -0.31816,0.58577 -0.51523,0.91571 -0.2233,0.37388 -0.28237,0.845 -0.59959,1.16904 -0.36332,0.39174 -0.58813,0.91001 -0.9894,1.26856 -0.0776,0.0694 -0.18729,0.0954 -0.26624,0.16328 -0.0808,0.0695 -0.13808,0.1624 -0.20712,0.2436 -0.37032,0.1787 -0.51047,0.5457 -0.84674,0.74534 -0.31168,0.18505 -17.71857,10.32688 -0.47915,0.28182 -2.44307,1.61828 -4.73822,2.84276 -7.50172,4.47367 -0.087,0.0513 -0.3532,0.19633 -0.26575,0.14574 2.1731,-1.25693 8.79779,-4.82618 6.52275,-3.76483 -2.47315,1.15378 -4.74612,2.69539 -7.11918,4.04308 -0.54016,0.28633 -1.12412,0.36916 -1.68519,0.61801 -0.79182,0.33503 -1.6281,0.56915 -2.49653,0.52658 -1.02881,-0.0765 -2.05951,-0.22275 -3.02129,-0.61591 -0.97304,-0.43614 -1.91037,-0.95513 -2.79131,-1.55709 -0.59981,-0.45086 -1.19359,-0.92236 -1.69147,-1.48662 -0.47812,-0.7662 -0.64068,-1.55231 -0.74027,-2.44233 -0.21244,-0.92655 -0.41127,-1.83758 -0.4594,-2.79135 -0.17059,-1.00831 -0.44971,-1.99843 -0.33556,-3.03253 0.0228,-1.06437 0.0615,-2.12891 0.24961,-3.17972 0.1823,-0.99163 0.39307,-1.96648 0.48144,-2.97258 0.19757,-0.82975 0.60391,-1.53604 0.91144,-2.32301 0.21992,-0.37442 0.29159,-0.77365 0.49798,-1.15386 0.3626,-0.668 0.0623,-0.0289 0.48366,-0.61611 0.0835,-0.11643 0.13846,-0.25094 0.2077,-0.3764 0.5481,-0.72817 0.92095,-1.58587 1.5693,-2.24882 0.56502,-0.66829 1.29952,-1.16867 1.79754,-1.90141 0.75501,-0.63539 1.36062,-1.4403 2.08167,-2.11629 0.86521,-0.71872 1.77169,-1.37663 2.63247,-2.09709 2.81585,-2.25263 6.10053,-3.9003 9.3277,-5.49347 0.99779,-0.41185 2.05365,-0.59659 3.11864,-0.74872 1.16188,-0.15466 2.33276,-0.0941 3.4999,-0.0197 1.33512,0.1186 2.66834,0.30458 3.89681,0.87651 1.41715,0.61491 2.80824,1.262 4.05531,2.19221 0,0 -6.68528,4.28051 -6.68528,4.28051 z"
                inkscape:connector-curvature="0"/>
        <path
                style="fill:#2b0000;fill-opacity:1;stroke:#000000;stroke-width:0.26458332;stroke-opacity:1"
                id="path5152"
                d="m 207.31899,246.55781 c 1.28805,0.0148 2.59536,-0.16486 3.79702,-0.63562 0.90035,-0.32205 1.70498,-0.83623 2.61461,-1.14206 2.42051,-1.31243 5.62243,-3.13038 -5.60626,3.23861 -0.79865,0.453 0.75247,-0.49841 0.95806,-0.67082 0.47673,-0.77738 1.016,-1.51076 1.56356,-2.24379 2.56778,-3.26413 1.42639,-1.59846 8.45192,-4.82247 0.22793,1.27385 -0.48354,2.40356 -0.99686,3.51756 -0.38912,0.93716 -0.7374,1.89587 -1.18373,2.80784 -0.41237,0.83003 -0.69845,1.71342 -1.07486,2.55822 -0.41133,0.90079 -0.73025,1.82892 -1.00374,2.77881 -0.27557,0.9492 -0.53483,1.89909 -0.83324,2.8415 -0.33048,1.00703 -0.69291,2.00354 -1.01962,3.01183 -0.24426,1.05199 -0.51542,2.10017 -0.72993,3.15924 -0.25502,1.00656 -0.50798,2.00815 -0.66089,3.03613 -0.0687,0.94921 -0.15732,1.88544 -0.33397,2.82142 -0.20414,0.88655 -0.26678,1.79297 -0.30465,2.69901 -0.0658,0.71115 0.14926,1.3651 0.44253,1.99943 0.39589,0.53755 1.0797,0.78214 1.64478,1.10897 0.69423,0.36289 1.33744,0.77875 2.08061,1.03928 0.68342,0.16315 1.39057,0.15905 2.08887,0.16635 0.4915,0.0166 1.00158,0.0358 1.43409,-0.24385 0.09,-0.0582 0.31876,-0.28204 0.22522,-0.22964 -2.18936,1.22634 -4.34899,2.50503 -6.52349,3.75754 0.68522,-0.35057 1.2663,-0.84798 1.88038,-1.30075 19.13702,-10.92593 0.35596,-0.17828 0.52275,-0.28618 2.28966,-1.48132 4.71002,-2.75064 7.08784,-4.08586 2.1977,-1.23407 -4.35679,2.53584 -6.54743,3.7824 -0.30181,0.17174 0.29155,-0.22502 0.54108,-0.39347 0.69288,-0.5566 1.26942,-1.2236 1.79681,-1.93618 0.63376,-0.91236 1.07565,-1.93298 1.58814,-2.91281 0.43328,-0.87669 0.95978,-1.69781 1.48362,-2.52149 0.50777,-0.8952 1.05175,-1.76702 1.59721,-2.63943 0.66408,-1.06646 1.31701,-2.1373 1.93165,-3.23351 0.63688,-1.22149 1.45693,-2.33134 2.19462,-3.49143 0.50996,-0.86163 0.91362,-1.77913 1.38548,-2.66002 0.37247,-0.76184 0.74134,-1.52234 1.09068,-2.29541 0.37212,-0.79466 0.7961,-1.56374 1.1977,-2.34372 0.39845,-0.84462 0.73911,-1.71345 1.10043,-2.57421 0.28722,-0.84186 0.39961,-1.72422 0.63641,-2.58138 0.18009,0.50986 0.0386,-0.65066 0.13245,-0.50433 0.13223,0.20623 0.0679,0.77313 0.29212,0.6744 7.98603,-3.51664 7.53125,-5.87086 5.93603,-2.4083 -0.65252,1.45253 -1.27866,2.91619 -1.87241,4.3937 -0.54029,1.09116 -0.85208,2.26832 -1.28697,3.39911 -0.3326,0.65865 -0.46637,1.36934 -0.53924,2.09577 -0.0609,0.93336 -0.0519,1.86967 -0.0521,2.80454 0.001,1.06404 0.003,2.12809 0.004,3.19214 7.9e-4,1.07082 0.001,2.14164 0.001,3.21246 -0.0654,0.83518 0.22249,1.62401 0.36763,2.43426 0.0865,0.71892 0.54999,1.26513 0.85813,1.89271 0.40707,0.39322 0.76226,0.84807 1.14528,1.27221 0.57451,0.3398 1.22109,0.54827 1.79685,0.88858 0.69895,0.22135 1.24958,0.73054 1.94949,0.93815 0.56749,0.063 1.0271,0.29978 1.54496,0.51792 0.4452,0.33176 0.95484,0.51117 1.4954,0.60575 0,0 -6.55001,4.51433 -6.55001,4.51433 v 0 c -0.55237,-0.17817 -1.06114,-0.43459 -1.57829,-0.6952 -0.49773,-0.21134 -1.02045,-0.30258 -1.52181,-0.50986 -0.67301,-0.3206 -1.30073,-0.72988 -1.99256,-1.01556 -0.68619,-0.31375 -1.40909,-0.6137 -1.96792,-1.13239 -0.40956,-0.49424 -0.88084,-0.93115 -1.24818,-1.45496 -0.32535,-0.6993 -0.8282,-1.30987 -0.95357,-2.09521 -0.13333,-0.85633 -0.45637,-1.68604 -0.40703,-2.56263 10e-6,-1.07063 8e-5,-2.14127 -5.3e-4,-3.2119 -7.9e-4,-1.06325 -0.002,-2.1265 -0.007,-3.18975 -0.004,-0.94841 -0.0149,-1.89707 0.006,-2.84536 0.0341,-0.79642 0.10954,-1.60777 0.42968,-2.34706 0.54863,-1.09469 0.75683,-2.31353 1.34972,-3.39459 0.58034,-1.49023 1.20939,-2.95761 1.8678,-4.41489 0.0495,-0.1255 0.51653,-1.32805 0.55646,-1.35573 1.63673,-1.13474 5.80538,-6.89666 7.493,-3.8045 0.0956,0.17516 -0.0263,0.54754 -0.0614,0.70226 -0.27795,0.87182 -0.4742,1.7339 -0.62467,2.6365 -0.29795,0.89417 -0.72503,1.7393 -1.07718,2.6121 -0.30703,0.82072 -0.78031,1.57538 -1.21128,2.33465 -0.31225,0.80743 -0.69715,1.57285 -1.05676,2.35103 -0.45708,0.91353 -0.9486,1.80441 -1.39829,2.72333 -0.68527,1.19003 -1.54624,2.26234 -2.2189,3.45957 -0.57684,1.11155 -1.20115,2.19795 -1.8929,3.24127 -0.48556,0.91017 -1.11616,1.72705 -1.59297,2.64139 -0.458,0.8556 -1.06411,1.6127 -1.50003,2.47988 -0.50584,1.01648 -1.04043,2.01371 -1.54943,3.02868 -0.50967,0.72455 -0.99633,1.52447 -1.70196,2.06944 -0.27781,0.33656 -0.15087,0.2428 -0.51074,0.45616 -2.34805,1.39213 -4.87111,2.52276 -7.04845,4.16914 -2.01005,1.51989 8.78247,-4.94268 6.54309,-3.78702 -0.74295,0.38341 -17.35262,10.01182 -0.53103,0.27175 -0.68147,0.3767 -1.21509,0.92225 -1.8729,1.33339 -4.25983,2.45638 -5.28647,4.37841 -9.00756,4.227 -0.76693,-0.0312 -1.53957,-0.0935 -2.25656,-0.39246 -0.73409,-0.32689 -1.41333,-0.75736 -2.12345,-1.13195 -0.73173,-0.38906 -1.48285,-0.7871 -1.91569,-1.52726 -0.34642,-0.73363 -0.65621,-1.51127 -0.59811,-2.3392 0.0219,-0.94253 0.0461,-1.89115 0.23752,-2.81777 0.20734,-0.91951 0.36075,-1.82371 0.35818,-2.77026 0.12456,-1.04416 0.33036,-2.07831 0.65795,-3.07906 0.18394,-1.0917 0.50875,-2.14603 0.69329,-3.23686 0.2818,-1.01698 0.65361,-2.00824 1.01123,-2.99969 0.25451,-0.96205 0.62738,-1.88504 0.83508,-2.86198 0.32521,-0.9495 0.51627,-1.94211 0.95341,-2.85395 0.37595,-0.85352 0.7262,-1.70915 1.06011,-2.58169 0.44086,-0.91703 0.89485,-1.83019 1.22805,-2.79547 0.40208,-0.95839 0.93542,-1.87097 1.27118,-2.84309 10.4737,-5.66146 7.88945,-5.27023 5.76333,-2.2472 -0.60895,0.64615 -1.22231,1.40017 -1.55043,2.22804 -0.24649,0.42116 -0.44658,0.65379 -0.87156,0.90082 -2.46116,1.43058 -5.20927,3.36911 -8.03075,4.54373 -0.8717,0.39264 -1.71709,0.85536 -2.64624,1.10476 -1.28858,0.32873 -2.6256,0.43608 -3.95285,0.44352 0,0 6.42407,-4.66735 6.42407,-4.66735 z"
                inkscape:connector-curvature="0"/>
        <path
                style="fill:#2b0000;fill-opacity:1;stroke:#000000;stroke-width:0.26458332;stroke-opacity:1"
                id="path5154"
                d="m 269.738,208.51524 c 0.003,1.66452 -0.0594,3.316 -0.24419,4.97032 -0.096,1.35705 -0.36314,2.68915 -0.58052,4.02926 -0.0961,1.13201 -0.341,2.23853 -0.54094,3.35427 -0.14872,1.09629 -0.44373,2.16207 -0.61135,3.25533 -0.0833,1.23358 -0.24662,2.45428 -0.51551,3.66119 -0.29202,1.13598 -0.60039,2.26869 -0.86903,3.41042 -0.22643,1.20726 -0.51181,2.40418 -0.86751,3.57983 -0.298,1.06108 -0.50795,2.14363 -0.76198,3.21623 -0.19272,1.06532 -0.3406,2.13343 -0.55819,3.19487 -0.23469,1.04903 -0.24575,2.12594 -0.36216,3.18942 -0.2355,1.17772 -0.36973,2.36819 -0.44795,3.56556 -0.16975,1.22906 -0.38553,2.44696 -0.49562,3.68422 -0.0986,1.25649 -0.10212,2.51721 -0.11529,3.77663 -1.6e-4,1.3569 -0.002,2.71382 0.002,4.07072 0.008,1.2064 0.0542,2.40784 -0.11374,3.60499 -0.19649,1.05225 -0.30599,2.11508 -0.36523,3.18291 -0.0465,1.06133 -0.0457,2.12395 -0.0469,3.18607 -0.0875,1.00062 0.14963,1.27184 0.8171,1.91052 0.38196,0.46298 0.81158,0.98134 1.35891,1.25118 0.63318,0.16488 1.14369,0.61738 1.70191,0.94899 0.61563,0.23675 1.0959,0.70871 1.64417,1.06819 0.56335,0.24469 1.18687,0.24663 1.79033,0.26469 0.55825,0.003 1.1166,-5.3e-4 1.67482,-0.006 0.60896,-0.004 1.21793,2.6e-4 1.82686,-0.006 0.6377,-0.0389 1.24561,-0.50551 1.7779,-0.84691 2.63599,-1.24296 0.89072,-0.43406 -5.96681,3.46382 -0.13472,0.0766 0.26012,-0.16851 0.3905,-0.25226 0.34375,-0.2208 0.63598,-0.44624 0.93888,-0.71991 0.65926,-0.67749 1.35477,-1.31586 2.09619,-1.90203 1.06672,-0.6693 2.04004,-1.46175 2.98127,-2.29458 0.69225,-0.60039 0.34176,-0.30711 1.05129,-0.88002 0,0 7.33272,-2.93998 7.33272,-2.93998 v 0 c -0.71419,0.55871 -0.35581,0.28072 -1.07514,0.83396 -0.91683,0.85328 -1.84224,1.71195 -2.90626,2.38167 -0.80367,0.46835 -1.48257,1.10851 -2.13484,1.76061 -2.37236,2.59183 -5.91966,3.73124 -8.8832,5.54128 -0.66604,0.33256 -1.28209,0.63218 -2.05113,0.54115 -0.60725,-0.005 -1.21444,0.003 -1.82166,0.005 -0.56759,-5e-5 -1.13641,0.0119 -1.70222,-0.0436 -0.7164,-0.0719 -1.42709,-0.19656 -2.0323,-0.61607 -0.52328,-0.37493 -1.03651,-0.76079 -1.6226,-1.03641 -0.55441,-0.35547 -1.11469,-0.68579 -1.71461,-0.95952 -0.53232,-0.40545 -1.02207,-0.87718 -1.44224,-1.39829 -0.68926,-0.71738 -1.21404,-1.41017 -1.09175,-2.47218 -2.6e-4,-1.07323 -0.003,-2.14675 0.0299,-3.2196 0.0444,-1.09345 0.12094,-2.18695 0.33014,-3.26326 0.20966,-1.16236 0.21514,-2.31959 0.18744,-3.50088 0.002,-1.35851 -0.006,-2.71699 -10e-4,-4.0755 -0.003,-1.2758 -0.005,-2.55331 0.0772,-3.82701 0.0944,-1.23153 0.22995,-2.45961 0.5002,-3.66667 0.0669,-1.21356 0.15862,-2.4318 0.4074,-3.62364 0.20763,-1.06083 0.10998,-2.16193 0.34633,-3.2235 0.20585,-1.07105 0.43826,-2.12651 0.54988,-3.21351 0.2348,-1.09519 0.51376,-2.17644 0.74212,-3.27268 0.35833,-1.15896 0.70818,-2.326 0.90379,-3.52545 0.2341,-1.15756 0.55406,-2.29229 0.84759,-3.43563 0.35134,-1.1557 0.50258,-2.36537 0.56249,-3.56919 0.11089,-1.11411 0.40933,-2.18062 0.58832,-3.2801 0.17528,-1.1222 0.48745,-2.21581 0.55618,-3.35321 0.20501,-1.33957 0.52717,-2.6576 0.61309,-4.01339 0.20948,-1.61679 0.37674,-3.22837 0.23993,-4.86189 0,0 7.07511,-3.60495 7.07511,-3.60495 z"
                inkscape:connector-curvature="0"/>
    </g>
</svg>
