<?xml version="1.0" encoding="utf-8"?>
<!-- Generator: Adobe Illustrator 21.1.0, SVG Export Plug-In . SVG Version: 6.00 Build 0)  -->
<svg version="1.1" id="Calque_1" xmlns="http://www.w3.org/2000/svg" x="0px"
	 y="0px"
	 viewBox="0 0 432 432" style="enable-background:new 0 0 432 432;" xml:space="preserve">
<style type="text/css">
	.st0{fill:#A2CB68;}
	.st1{fill:#57689A;}
	.st2{fill:#1A1A1A;}
	.st3{fill:#B7AC82;}
	.st4{fill:#496B59;}
	.st5{fill:#77B192;}
	.st6{fill:#5E846F;}
	.st7{fill:#534741;}
	.st8{fill:#33332E;}
	.st9{fill:#EBB35B;}
	.st10{fill:#736357;}
	.st11{fill:#9FC07E;}
	.st12{fill:#E484B4;}
	.st13{fill:#81C5D2;}
	.st14{fill:#D6CDBF;}
	.st15{fill:#8C3F42;}
	.st16{fill:#714A4C;}
	.st17{fill:#562428;}
	.st18{fill:#AAB272;}
	.st19{fill:#9E5F81;}
	.st20{fill:#BC758D;}
	.st21{fill:#7BADE5;}
	.st22{fill:#E0954B;}
	.st23{fill:#88729B;}
	.st24{fill:#FBB03B;}
	.st25{fill:#7DCCC3;}
	.st26{fill:#E990A4;}
	.st27{fill:#C03039;}
	.st28{fill:#0071BC;}
	.st29{fill:#FAAC47;}
	.st30{fill:#7BC0D6;}
	.st31{fill:#C683A6;}
	.st32{fill:#DDC36C;}
	.st33{fill:#C4AD6C;}
	.st34{fill:#3C503E;}
	.st35{fill:#DDB42B;}
	.st36{fill:#787861;}
	.st37{fill:#80615A;}
	.st38{fill:#4F7181;}
	.st39{fill:#93BBCE;}
	.st40{fill:#AAB4B8;}
	.st41{fill:#5C6D75;}
	.st42{fill:#BFA08A;}
	.st43{fill:#333333;}
	.st44{fill:#895573;}
	.st45{fill:#D699BC;}
	.st46{fill:#D8B45B;}
	.st47{fill:#B2B0A1;}
	.st48{fill:#998675;}
	.st49{fill:#A38AA1;}
	.st50{fill:#95A78E;}
	.st51{fill:#9595A0;}
	.st52{fill:#ACA196;}
	.st53{fill:#69786B;}
	.st54{fill:#466E71;}
	.st55{fill:#88BABE;}
	.st56{fill:#998073;}
	.st57{fill:#DBB57B;}
	.st58{fill:#C1272D;}
	.st59{fill:#CCCCCC;}
	.st60{fill:#CC5252;}
	.st61{fill:#D5AE80;}
	.st62{fill:#D8A991;}
	.st63{fill:#89A750;}
	.st64{fill:#322C2B;}
	.st65{fill:#E891A5;}
	.st66{fill:#9AB05A;}
	.st67{fill:#DBA55E;}
	.st68{fill:#9E3E45;}
	.st69{fill:#F8AB51;}
	.st70{fill:#B3B3B3;}
	.st71{fill:#E6E6E6;}
</style>
    <g>
	<g>
		<path class="st8" d="M207.8,273.4c1.9,0,3.8,0,5.8,0c1.2,0,2.4,0,3.5,0.1c1,0.1,2.1,0.2,3.1,0.5c0.9,0.2,1.5,0.7,1.8,1.5
			c0.6,1.3,1,2.7,1.5,4c0.9,2.6,1.5,5.2,2.3,7.8c0.7,2.5,1.4,5.1,1.9,7.6c0.4,2,0.7,4,0.7,6c0,1.5-0.2,2.9-0.5,4.4
			c-0.2,1-0.4,2-0.6,2.9c-0.8,3.1-2.3,5.9-4.5,8.3c-1.6,1.8-3.3,3.4-5.1,4.9c-0.8,0.7-1.7,1.4-2.5,2.1c-1.9,1.6-3.3,3.6-4.1,6
			c-0.4,1.3-0.7,2.7-0.9,4c-0.5,3.8-0.6,7.7-0.4,11.5c0,1.1,0.1,2.3,0.1,3.4c0.1,2.7,0.4,5.3,0.9,7.9c0.3,1.5,0.8,2.9,1.6,4.2
			c0.7,1.2,1.8,2.1,3,2.7c1.3,0.6,2.7,1,4.1,1c0.9,0,1.8,0.1,2.7,0.2c0.2,0,0.4,0,0.6,0.1c0.3,0.1,0.6,0.3,0.7,0.7
			c0.1,0.4-0.1,0.7-0.4,1c-0.3,0.2-0.6,0.3-1,0.3c-0.5,0-0.9,0.1-1.4,0.1c-1.9,0.1-3.7,0.2-5.6,0.3c-2.9,0.2-5.7,0.1-8.6,0.1
			c-2.9,0-5.7,0-8.6-0.1c-1.5,0-3.1-0.2-4.6-0.3c-0.2,0-0.4-0.1-0.6-0.1c-0.2-0.1-0.4-0.2-0.5-0.4c-0.4-0.5-0.3-1.1,0.2-1.4
			c0.3-0.2,0.6-0.3,0.9-0.3c0.6-0.1,1.2-0.1,1.7-0.1c0.9-0.1,1.9-0.1,2.8-0.3c1.8-0.4,3.4-1.2,4.7-2.5c0.5-0.5,0.8-1.1,1.1-1.7
			c0.7-1.4,1.2-2.9,1.4-4.4c0.3-2,0.5-4,0.6-6c0.1-2.2,0.2-4.4,0.3-6.6c0.1-2.4,0-4.8-0.2-7.1c-0.2-2-0.5-3.9-1-5.8
			c-0.7-2.2-1.8-4.2-3.6-5.8c-0.9-0.8-1.8-1.6-2.7-2.3c-1.6-1.3-3.1-2.7-4.5-4.2c-0.6-0.7-1.2-1.3-1.8-2c-2-2.4-3.3-5.2-3.9-8.3
			c-0.4-1.6-0.7-3.3-0.8-4.9c-0.1-1-0.1-2.1,0-3.1c0.2-2.7,0.7-5.3,1.4-7.9c0.7-2.7,1.5-5.4,2.2-8.1c0.6-2.2,1.3-4.5,2.2-6.6
			c0.2-0.4,0.3-0.8,0.5-1.2c0.4-0.8,0.9-1.3,1.8-1.5c0.8-0.2,1.6-0.3,2.4-0.4c3.2-0.3,6.4-0.2,9.6-0.2
			C207.5,273.4,207.7,273.4,207.8,273.4C207.8,273.4,207.8,273.4,207.8,273.4z"/>
        <g>
			<g>
				<path class="st16" d="M169,270.7c1.4,5.8,2.4,13.2,2.4,20.6c0,1.8-0.3,3.6-0.5,5.4c-0.1,0.5-0.3,1.1-0.5,1.6
					c-0.1,0.2-0.2,0.4-0.3,0.6c-0.3,0.3-0.6,0.6-1,0.4c-0.5-0.2-0.3-0.6-0.3-0.9c0-2,0.2-4,0.1-6.1c-0.1-3.8-0.6-7.6-1.2-11.3
					c-0.3-1.9-0.7-3.8-1.1-5.7c-2.5-11.6-7.3-22.3-14.3-31.9c-3.4-4.6-7.3-8.8-11.9-12.2c-2.8-2-5.8-3.7-9.2-4.7
					c-2.4-0.7-4.9-1.2-7.5-0.9c-3.5,0.4-6.4,1.9-8.4,4.9c-2.1,3.1-3,6.6-3.1,10.3c-0.1,4.1,0.6,8.1,1.9,12c1.4,4.1,3.3,7.9,5.9,11.3
					c1.7,2.2,3.7,4.2,5.9,5.8c1.2,0.9,2.4,1.6,3.8,2c1.1,0.4,2.2,0.6,3.3,0.4c1.3-0.2,2.1-0.9,2.8-2c0.9-1.5,1.2-3.2,1.2-4.9
					c0.1-2.8-0.5-5.5-1.2-8.2c-0.4-1.4-0.7-2.8-1-4.3c-0.2-0.8,0.2-1.4,0.9-1.7c0.6-0.3,1.2-0.2,1.5,0.4c0.4,0.7,0.8,1.4,1,2.2
					c1.1,3.1,1.9,6.2,2.1,9.5c0.1,1.9,0,3.7-0.5,5.5c-0.8,2.7-2.4,4.8-5.1,5.9c-1.8,0.8-3.6,1-5.5,0.7c-2.1-0.3-4-1.1-5.7-2.1
					c-4.1-2.4-7.2-5.7-9.8-9.6c-3-4.4-4.8-9.3-5.8-14.5c-0.7-3.4-0.9-6.8-0.3-10.2c0.7-4.5,2.6-8.5,5.9-11.7c2.6-2.6,5.9-4,9.5-4.5
					c4.9-0.7,9.6,0.4,14.1,2.4c5,2.3,9.3,5.6,13.2,9.5c4.9,5,8.7,10.7,11.9,16.9C164.9,257.3,167.1,263.2,169,270.7z"/>
                <path class="st16" d="M269.6,270.7c-1.4,5.8-2.4,13.2-2.4,20.6c0,1.8,0.3,3.6,0.5,5.4c0.1,0.5,0.3,1.1,0.5,1.6
					c0.1,0.2,0.2,0.4,0.3,0.6c0.3,0.3,0.6,0.6,1,0.4c0.5-0.2,0.3-0.6,0.3-0.9c0-2-0.2-4-0.1-6.1c0.1-3.8,0.6-7.6,1.2-11.3
					c0.3-1.9,0.7-3.8,1.1-5.7c2.5-11.6,7.3-22.3,14.3-31.9c3.4-4.6,7.3-8.8,11.9-12.2c2.8-2,5.8-3.7,9.2-4.7
					c2.4-0.7,4.9-1.2,7.5-0.9c3.5,0.4,6.4,1.9,8.4,4.9c2.1,3.1,3,6.6,3.1,10.3c0.1,4.1-0.6,8.1-1.9,12c-1.4,4.1-3.3,7.9-5.9,11.3
					c-1.7,2.2-3.7,4.2-5.9,5.8c-1.2,0.9-2.4,1.6-3.8,2c-1.1,0.4-2.2,0.6-3.3,0.4c-1.3-0.2-2.1-0.9-2.8-2c-0.9-1.5-1.2-3.2-1.2-4.9
					c-0.1-2.8,0.5-5.5,1.2-8.2c0.4-1.4,0.7-2.8,1-4.3c0.2-0.8-0.2-1.4-0.9-1.7c-0.6-0.3-1.2-0.2-1.5,0.4c-0.4,0.7-0.8,1.4-1,2.2
					c-1.1,3.1-1.9,6.2-2.1,9.5c-0.1,1.9,0,3.7,0.5,5.5c0.8,2.7,2.4,4.8,5.1,5.9c1.8,0.8,3.6,1,5.5,0.7c2.1-0.3,4-1.1,5.7-2.1
					c4.1-2.4,7.2-5.7,9.8-9.6c3-4.4,4.8-9.3,5.8-14.5c0.7-3.4,0.9-6.8,0.3-10.2c-0.7-4.5-2.6-8.5-5.9-11.7c-2.6-2.6-5.9-4-9.5-4.5
					c-4.9-0.7-9.6,0.4-14.1,2.4c-5,2.3-9.3,5.6-13.2,9.5c-4.9,5-8.7,10.7-11.9,16.9C273.7,257.3,271.5,263.2,269.6,270.7z"/>
			</g>
            <g>
				<path class="st17" d="M189.2,342.4c-0.1,4.5-0.7,8.9-2.4,13.1c-0.4,1.1-1,2.1-1.6,3.1c-0.2,0.4-0.6,0.7-1,1
					c-0.3,0.2-0.7,0.3-1,0c-0.3-0.3-0.2-0.6-0.1-0.9c0.7-1.9,1.4-3.8,1.8-5.8c1.3-6.4,1.3-12.7-0.6-19c-1.8-6-4.6-11.4-9.1-15.9
					c-3.7-3.7-8.1-6-13.2-6.9c-1.3-0.2-2.7-0.4-4-0.1c-2.8,0.5-4.8,2-6,4.6c-0.9,2.1-1.4,4.3-1.5,6.6c-0.2,4,0.7,7.8,2.4,11.4
					c0.7,1.4,1.4,2.8,2.2,4.1c0.9,1.5,2.1,2.7,3.6,3.6c0.6,0.3,1.2,0.6,1.8,0.8c0.7,0.3,1.4,0,1.9-0.5c1-0.9,1.6-2.1,1.8-3.4
					c0.3-1.9,0.1-3.7-0.2-5.5c-0.1-0.7-0.3-1.3-0.4-2c-0.2-1,0.4-1.8,1.3-2.1c0.8-0.2,1.5,0.1,1.7,0.9c0.3,0.8,0.4,1.6,0.6,2.5
					c0.4,1.7,0.6,3.4,0.4,5.2c-0.2,1.8-0.6,3.4-1.7,4.9c-2,2.7-4.9,3.8-8.2,2.9c-2.1-0.6-3.9-1.8-5.4-3.2c-1.4-1.3-2.5-2.8-3.4-4.5
					c-2.4-4.2-3.6-8.6-3.5-13.4c0.1-3,0.8-5.8,2.1-8.4c1.9-3.9,5.2-5.9,9.3-6.9c2.7-0.6,5.5-0.3,8.2,0.4c8.4,2.1,14.6,7,18.9,14.4
					C187.4,328.9,189.1,335.4,189.2,342.4z"/>
                <path class="st17" d="M93.8,195.8c-0.1,1.9,0.2,3.8,0.9,5.6c2.1,5.5,5.4,10.2,10.2,13.7c2,1.4,4.1,2.5,6.5,3.1
					c0.3,0.1,0.6,0.2,0.9,0.3c0.6,0.3,0.8,1,0.2,1.4c-0.3,0.2-0.7,0.3-1.1,0.4c-1.5,0.1-2.9-0.2-4.3-0.8c-2.7-1.1-5.1-2.7-7.1-4.7
					c-3.4-3.3-6.1-7.2-7.9-11.7c-1.3-3.1-1.7-6.4-1.1-9.8c0.3-2,1.2-3.8,3-5c1.7-1.2,3.6-1.4,5.5-0.6c2.2,1,3.7,2.7,4.8,4.8
					c1.2,2.3,1.6,4.8,1.6,7.4c0,0.8-0.3,1.4-1,1.9c-1,0.7-2.1,0.3-2.3-0.9c-0.1-0.7-0.2-1.4-0.3-2.2c-0.4-2.4-1.3-4.7-2.9-6.6
					c-0.7-0.7-1.4-1.4-2.3-1.8c-1-0.5-1.7-0.3-2.3,0.6c-0.7,1-0.9,2.1-1,3.3C93.8,194.8,93.8,195.3,93.8,195.8z"/>
                <path class="st17" d="M225.7,342.4c0.1,4.5,0.7,8.9,2.4,13.1c0.4,1.1,1,2.1,1.6,3.1c0.2,0.4,0.6,0.7,1,1c0.3,0.2,0.7,0.3,1,0
					c0.3-0.3,0.2-0.6,0.1-0.9c-0.7-1.9-1.4-3.8-1.8-5.8c-1.3-6.4-1.3-12.7,0.6-19c1.8-6,4.6-11.4,9.1-15.9c3.7-3.7,8.1-6,13.2-6.9
					c1.3-0.2,2.7-0.4,4-0.1c2.8,0.5,4.8,2,6,4.6c0.9,2.1,1.4,4.3,1.5,6.6c0.2,4-0.7,7.8-2.4,11.4c-0.7,1.4-1.4,2.8-2.2,4.1
					c-0.9,1.5-2.1,2.7-3.6,3.6c-0.6,0.3-1.2,0.6-1.8,0.8c-0.7,0.3-1.4,0-1.9-0.5c-1-0.9-1.6-2.1-1.8-3.4c-0.3-1.9-0.1-3.7,0.2-5.5
					c0.1-0.7,0.3-1.3,0.4-2c0.2-1-0.4-1.8-1.3-2.1c-0.8-0.2-1.5,0.1-1.7,0.9c-0.3,0.8-0.4,1.6-0.6,2.5c-0.4,1.7-0.6,3.4-0.4,5.2
					c0.2,1.8,0.6,3.4,1.7,4.9c2,2.7,4.9,3.8,8.2,2.9c2.1-0.6,3.9-1.8,5.4-3.2c1.4-1.3,2.5-2.8,3.4-4.5c2.4-4.2,3.6-8.6,3.5-13.4
					c-0.1-3-0.8-5.8-2.1-8.4c-1.9-3.9-5.2-5.9-9.3-6.9c-2.7-0.6-5.5-0.3-8.2,0.4c-8.4,2.1-14.6,7-18.9,14.4
					C227.5,328.9,225.8,335.4,225.7,342.4z"/>
                <path class="st17" d="M255.9,274.9c0.1,1.9-0.2,3.8-0.9,5.6c-2.1,5.5-5.4,10.2-10.2,13.7c-2,1.4-4.1,2.5-6.5,3.1
					c-0.3,0.1-0.6,0.2-0.9,0.3c-0.6,0.3-0.8,1-0.2,1.4c0.3,0.2,0.7,0.3,1.1,0.4c1.5,0.1,2.9-0.2,4.3-0.8c2.7-1.1,5.1-2.7,7.1-4.7
					c3.4-3.3,6.1-7.2,7.9-11.7c1.3-3.1,1.7-6.4,1.1-9.8c-0.3-2-1.2-3.8-3-5c-1.7-1.2-3.6-1.4-5.5-0.6c-2.2,1-3.7,2.7-4.8,4.8
					c-1.2,2.3-1.6,4.8-1.6,7.4c0,0.8,0.3,1.4,1,1.9c1,0.7,2.1,0.3,2.3-0.9c0.1-0.7,0.2-1.4,0.3-2.2c0.4-2.4,1.3-4.7,2.9-6.6
					c0.7-0.7,1.4-1.4,2.3-1.8c1-0.5,1.7-0.3,2.3,0.6c0.7,1,0.9,2.1,1,3.3C255.9,273.9,255.9,274.4,255.9,274.9z"/>
			</g>
		</g>
	</g>
        <g>
		<path class="st17" d="M177.5,242.2c0.1-0.8,0.2-1.5,0.3-2.3c0.6-3.8,1.5-7.4,3.2-10.9c0.7-1.5,1.6-2.9,2.7-4.1
			c0.7-0.8,1.6-1.5,2.5-2.1c2.8-1.6,6-1.2,8.3,1c1.1,1.1,2,2.3,2.7,3.8c1.2,2.5,1.9,5.1,2.5,7.7c0.2,0.8,0.4,1.6,0.5,2.5
			c0,0.2,0.1,0.4,0.2,0.8c0.3-1.5,0.6-2.8,0.9-4.1c1-4.7,2.7-9.3,4.9-13.6c1.1-2.1,2.4-3.9,4.1-5.5c1.8-1.7,3.8-2.8,6.2-3.3
			c2.6-0.5,4.9,0.2,6.7,2.2c1.5,1.6,2.4,3.4,2.7,5.5c0.3,1.9,0.6,3.9,0.7,5.9c0.2,3.8,0.3,7.6,0.4,11.4c0.1,4.5,0.2,9.1,0.3,13.6
			c0.2,4.4,0.7,8.7,1.4,13c0.1,0.4,0.2,0.8,0.4,1.2c0.1,0.3,0.3,0.6,0.7,0.6c0.4,0,0.5-0.3,0.6-0.6c0.7-1.8,1.6-3.6,2.1-5.5
			c1.2-4,2.2-8.1,3.3-12.2c1.2-4.4,2.3-8.9,3.4-13.3c0.5-2,0.8-4,1-6c0.3-3.4,1-6.8,2.5-9.9c0.9-2,2.1-3.7,3.9-5
			c3.1-2.4,6.4-3,10.1-1.5c1.2,0.5,2.2,1.2,3,2.3c2.3,2.9,3.1,7.1,0.9,11c-1.5,2.5-3.6,4.4-6.2,5.7c-1.9,0.9-3.9,1.5-6,1.7
			c-0.1,0-0.2,0-0.4,0.1c0,0.3,0,0.5,0,0.7c0.7,3.9,1.8,7.8,3.7,11.3c0.7,1.4,1.6,2.6,2.7,3.8c1.3,1.3,2.8,1.7,4.6,1.1
			c2.7-0.8,4.7-2.6,6-5c1-1.7,1.8-3.5,2.6-5.3c1.2-2.9,2.1-6,2.7-9.1c0.1-0.5,0.2-0.9,0.4-1.4c0.3-0.8,1.1-1.4,2-1.3
			c0.8,0,1.4,0.5,1.4,1.4c0,0.9-0.2,1.9-0.4,2.8c-0.5,2.1-0.9,4.3-1.5,6.4c-1.2,4.1-3,7.8-5.5,11.2c-1.2,1.6-2.5,3-4.1,4
			c-3.6,2.4-7.4,2.7-11.3,0.8c-2.9-1.4-5.2-3.6-6.9-6.3c-1.1-1.7-1.9-3.5-2.5-5.4c-0.1-0.3-0.2-0.6-0.5-1c-0.1,0.3-0.1,0.5-0.2,0.8
			c-1,4.4-2,8.8-3.1,13.1c-0.8,3.3-1.9,6.6-3.4,9.7c-0.8,1.6-1.6,3.2-2.8,4.6c-0.8,0.9-1.7,1.6-2.8,1.9c-1.3,0.3-2.5,0.1-3.4-0.8
			c-0.6-0.6-1.2-1.4-1.6-2.1c-2-3.7-3.2-7.7-3.8-11.8c-0.8-5.1-0.9-10.2-1-15.3c-0.1-3.9-0.3-7.8-0.5-11.7c-0.1-2.4-0.4-4.9-1-7.3
			c-0.2-0.7-0.4-1.4-0.7-2.1c-0.2-0.4-0.5-0.8-0.8-1.2c-0.4-0.4-0.9-0.6-1.4-0.3c-0.8,0.5-1.5,1-2.2,1.6c-1.6,1.5-2.9,3.2-3.9,5.1
			c-1.8,3.2-2.8,6.7-3.5,10.2c-1.3,6.5-1.6,13-1.4,19.6c0,1.1,0.1,2.1,0.2,3.2c0,0.6-0.1,1.1-0.5,1.5c-0.1,0.2-0.3,0.3-0.5,0.5
			c-2,1.7-4,1.3-4.9-1.2c-0.7-2-1.2-4.1-1.7-6.2c-0.9-4.5-1.6-9-2.4-13.4c-0.6-3.4-1.4-6.8-2.5-10.1c-0.3-0.8-0.6-1.6-1.1-2.3
			c-1-1.6-2.3-1.8-3.7-0.5c-1.2,1.1-2.3,2.4-2.9,4c-1.3,3.2-2.1,6.5-2.4,10c-0.5,5.3,0,10.5,0.9,15.7c0.5,2.7,0.8,5.4,1.2,8.2
			c0.2,1.4-0.3,2.6-1.4,3.5c-0.8,0.7-2.9,0.8-3.8,0c-0.8-0.7-1.4-1.5-1.9-2.5c-1.1-2.2-2-4.5-2.8-6.8c-2.4-6.6-4.1-13.5-5.3-20.4
			c-0.6-3.7-0.9-7.4-0.8-11.2c0-0.9,0.2-1.7,0.4-2.6c0.3-1,0.9-1.6,1.9-1.8c1-0.3,2-0.3,3.1-0.1c1,0.2,1.7,0.7,2,1.7
			c0.3,0.8,0.4,1.6,0.5,2.5c0.6,4.8,1.3,9.7,1.9,14.5c0.1,0.4,0.1,0.8,0.2,1.2C177.4,242.2,177.5,242.2,177.5,242.2z M247.6,229.7
			c0.2,0,0.2,0,0.3,0c0.2,0,0.3,0,0.5,0c2-0.3,3.9-0.9,5.6-2.1c1.8-1.2,3.1-2.8,3.8-4.8c0.9-2.5,0.5-4.9-0.9-7.1
			c-1.3-2.1-3.3-2.5-5.4-1.2c-1.1,0.7-1.8,1.7-2.4,2.8C247.3,221.3,247.1,225.4,247.6,229.7z"/>
            <g>
			<path class="st16" d="M228.6,108.9c0.1-0.3,0.2-0.5,0.2-0.8c2.5-8.7,6.1-16.9,10.9-24.7c1-1.6,2.1-3.2,3.5-4.5
				c0.7-0.7,1.5-1.3,2.3-1.8c2.9-1.6,6.2-0.6,7.8,2.3c0.9,1.6,1.3,3.3,1.5,5.1c0.2,2.1,0.5,4.2,0.5,6.3c0,4.4-0.1,8.8-0.1,13.1
				c0,3.5,0,7.1,0.3,10.6c0.6,6.4,1.8,12.6,4.5,18.5c0.7,1.6,1.5,3.1,2.6,4.4c0.4,0.5,0.9,0.9,1.4,1.3c0.4,0.3,0.9,0.3,1.2-0.1
				c0.5-0.5,0.9-1,1.3-1.5c1.1-1.5,1.8-3.1,2.5-4.8c1.8-4.5,3.1-9.2,4.4-13.9c1.8-6.3,3.6-12.6,5.4-18.9c0.1-0.5,0.2-1.1,0.2-1.6
				c-0.6-6.9,0.8-13.4,4-19.4c1.4-2.7,3.4-5,5.9-6.8c3-2,6.3-2.7,9.9-2.1c4.4,0.8,7.9,4.7,8.6,9.1c0.6,3.9-0.4,7.4-2.7,10.6
				c-3.2,4.5-7.6,7.2-12.8,8.7c-0.3,0.1-0.5,0.1-0.9,0.2c0.1,0.6,0.2,1.2,0.3,1.8c0.6,3,1.6,5.9,2.9,8.7c0.7,1.5,1.5,2.8,2.5,4.1
				c3,3.8,7.2,4.2,11,2.6c1.3-0.5,2.2-1.5,3-2.7c0.6-1,1.2-1.9,1.6-3c1.2-2.9,2.4-5.9,3.6-8.8c0.2-0.6,0.5-1.1,0.8-1.6
				c0.4-0.5,0.9-0.9,1.6-0.7c0.9,0.2,1.2,0.7,1,1.6c-0.5,1.8-0.9,3.6-1.5,5.3c-1.2,3.6-2.9,7-5.1,10.2c-1.3,1.8-2.7,3.5-4.5,4.9
				c-2.2,1.7-4.6,2.7-7.4,2.8c-2.3,0.1-4.6-0.5-6.7-1.3c-3.4-1.4-6.1-3.7-8.4-6.6c-2.2-2.8-3.8-6-4.9-9.3c-0.1-0.3-0.2-0.6-0.4-1.1
				c-0.1,0.5-0.2,0.7-0.3,1c-1.3,5.2-2.6,10.5-4,15.7c-1.1,4.1-2.4,8.1-4.1,12c-0.6,1.5-1.4,2.9-2.2,4.2c-0.8,1.3-1.8,2.3-3.1,3.2
				c-1.6,1.1-3.3,1.4-5.2,1.1c-2.3-0.5-4.2-1.8-5.9-3.4c-2.8-2.8-5-6.1-6.3-9.9c-1.8-5-2.8-10.2-3.5-15.4c-1.1-8-1.2-16.1-1.2-24.1
				c0-1.2,0-2.3-0.1-3.5c0-0.2,0-0.5-0.1-0.7c-0.2-0.7-0.6-1-1.2-0.6c-0.4,0.2-0.8,0.4-1,0.7c-0.6,0.7-1.2,1.4-1.7,2.1
				c-2.6,4.1-4.6,8.5-6.4,13c-2.1,5.3-3.6,10.7-4.3,16.3c-0.5,3.9-0.8,7.9-0.7,11.8c0,0.6,0.1,1.3,0,1.9c0,0.4-0.2,0.8-0.4,1
				c-0.8,0.9-3,1.1-3.7-0.5c-0.5-1.2-1-2.4-1.4-3.6c-1.4-4-2.2-8.1-2.9-12.2c-0.7-4.3-1.2-8.6-1.4-12.9c0-0.1,0-0.2-0.1-0.3
				c-0.3,0.2-0.4,0.5-0.5,0.8c-1.6,3.5-3.2,6.9-4.8,10.4c-0.8,1.7-1.7,3.3-2.7,4.9c-0.6,1-1.4,2-2.3,2.9c-1,1-2.3,1.7-3.7,1.7
				c-1.5,0.1-2.9-0.5-4-1.5c-0.9-0.8-1.7-1.8-2.3-2.9c-1.7-2.9-2.8-5.9-3.3-9.2c-0.9-5-0.9-10.1-0.2-15.2c0.2-1.6,0.5-3.1,0.7-4.7
				c0-0.2,0.1-0.4,0.1-0.8c-0.3,0.2-0.4,0.3-0.5,0.5c-2.2,2.1-4.3,4.2-6.7,6c-0.2,0.2-0.3,0.4-0.4,0.7c-0.5,8.9-2.8,17.4-5.7,25.8
				c-1.6,4.7-3.5,9.3-6,13.6c-1.4,2.3-2.9,4.6-4.6,6.6c-1.7,2-3.7,3.8-6,5.1c-2.3,1.3-4.8,2-7.4,1.8c-2.2-0.2-4.2-1-6-2.2
				c-2.8-1.8-4.8-4.2-6.4-7.1c-1.6-2.8-2.5-5.8-3.2-8.8c-1.1-5.1-1.4-10.3-1.1-15.6c0.1-2.3,0.2-4.5,0.4-6.8c0,0,0-0.1-0.1-0.3
				c-0.2,0.3-0.3,0.6-0.4,0.9c-1.5,3.2-3,6.3-4.9,9.2c-0.7,1.1-1.4,2.2-2.3,3.1c-1.1,1.4-2.6,2.2-4.4,2.4c-1.6,0.1-3.1-0.3-4.3-1.3
				c-1.8-1.3-3.1-3.1-4.1-5c-1.4-2.7-2.2-5.7-2.7-8.7c-0.4-3-0.6-6.1-0.5-9.2c0.2-3,0.4-6,0.7-9c0.4-3.7,1.1-7.3,1.8-10.9
				c0.2-1,0.5-2.1,0.9-3.1c0.5-1.5,1.6-2.1,3.1-2.2c2.4-0.1,4.1,1.1,4.9,3.4c0.4,1,0.5,2.1,0.5,3.1c-0.1,2.2-0.2,4.4-0.4,6.6
				c-0.2,2.9-0.5,5.9-0.8,8.8c-0.4,4.3-0.6,8.5-0.5,12.8c0.1,2.6,0.3,5.1,0.9,7.6c0.1,0.5,0.3,1,0.5,1.5c0.1,0.3,0.3,0.6,0.6,0.8
				c0.6,0.6,1.2,0.7,1.9,0.1c0.4-0.3,0.7-0.7,0.9-1.1c2.1-3.1,3.7-6.4,5.1-9.8c1.5-3.7,2.7-7.5,3.8-11.3c0.6-1.9,1.2-3.8,1.9-5.7
				c0.4-1.1,1-2.1,2-2.7c2.6-1.4,6.6-0.9,7.4,3.4c0.3,1.6,0.2,3.1,0.1,4.7c-0.2,2.6-0.4,5.1-0.6,7.7c-0.2,2.7-0.5,5.5-0.7,8.2
				c-0.3,3.8-0.3,7.6-0.1,11.4c0.2,4.2,0.9,8.3,2.3,12.2c0.6,1.6,1.4,3.1,2.4,4.4c2.2,2.7,6.1,3.5,9.2,1.5c1.8-1.2,3.3-2.8,4.6-4.5
				c2.9-3.7,4.9-7.8,6.6-12.1c3.1-7.8,5.3-15.9,6.7-24.1c0.2-1.2,0.3-2.4,0.5-3.7c-0.4,0.2-0.7,0.3-0.9,0.4
				c-2.8,1.4-5.7,2.1-8.8,2.1c-7.7,0-14.8-4.7-17.8-12c-1.6-3.8-2.1-7.8-1.2-11.9c1.3-5.7,5.9-10.3,11.6-11.4
				c3.7-0.7,7.1,0.2,10.2,2.2c1.5,1,2.8,2.3,4,3.7c3.3,4.1,5.2,8.7,6.1,13.9c0.4,2.3,0.6,4.6,0.6,6.9c0,0.1,0,0.3,0.1,0.5
				c0.3-0.2,0.5-0.4,0.6-0.5c2.3-2.1,4.6-4.2,7-6.2c0.4-0.3,0.6-0.7,0.7-1.2c0.4-1.4,0.9-2.8,1.5-4.1c0.8-1.8,2.3-2.5,4.2-1.9
				c2,0.6,3.1,2.1,3.3,4.1c0.1,1.2,0.1,2.4,0,3.5c-0.2,4.2-0.7,8.3-1.1,12.5c-0.5,5-1.1,9.9-0.9,15c0.1,1.3,0.2,2.7,0.5,4
				c0.1,0.6,0.5,1.3,0.8,1.8c0.4,0.7,0.9,0.7,1.4,0.1c0.7-0.8,1.3-1.5,1.9-2.4c1.3-2.2,2.5-4.4,3.7-6.6c2.1-4.1,4.1-8.3,6.1-12.5
				c0.2-0.4,0.3-0.9,0.3-1.4c-0.1-3-0.1-5.9,0.2-8.8c0-0.4,0.1-0.8,0.2-1.2c0.2-1,0.8-1.8,1.6-2.4c1-0.7,2.2-1.1,3.4-1.1
				c1.2-0.1,2.2,0.4,2.7,1.5c0.4,0.9,0.7,1.8,0.8,2.7c0.2,1.4,0.3,2.8,0.4,4.2c0.1,2.5,0,5.1,0.1,7.6c0,3,0.1,6,0.2,8.9
				c0,0.4,0.1,0.8,0.1,1.2C228.6,108.9,228.6,108.9,228.6,108.9z M185.4,94.6c0.2-3.1,0-6-0.3-9c-0.4-3.6-1.9-6.7-3.9-9.7
				c-1.2-1.7-2.9-2.9-4.8-3.6c-4.1-1.5-9.8-0.1-11.9,5.2c-0.7,1.7-1,3.4-1,5.2c0,4.2,1.5,7.9,4,11.2c2.1,2.7,4.9,3.9,8.3,3.8
				C179.3,97.4,182.4,96.3,185.4,94.6z M291,96.1c0.1,0,0.2,0.1,0.2,0.1c0.1,0,0.2,0,0.3-0.1c4.9-1.4,8.7-4.2,11.2-8.7
				c1.4-2.6,2-5.3,1.6-8.2c-0.3-2-1-3.8-2.6-5.2c-2-1.8-4.3-1.9-6.3-0.3c-0.4,0.3-0.8,0.7-1.2,1.1c-1.3,1.4-2.1,3.1-2.6,5
				c-1.1,4.8-1.4,9.6-0.9,14.6C290.9,95,291,95.5,291,96.1z"/>
                <path class="st16" d="M199.2,72.3c0-1.9,1.6-3.6,3.5-3.5c1.9,0,3.4,1.6,3.4,3.4c0,1.9-1.6,3.5-3.6,3.5
				C200.7,75.6,199.2,74.1,199.2,72.3z"/>
		</g>
            <g>
			<path class="st8" d="M130.5,176.3c-0.1,0.2-0.2,0.5-0.3,0.7c-1.4,3.6-2.8,7.1-4.2,10.6c-0.6,1.5-1.4,2.9-2.2,4.4
				c-0.7,1.3-1.7,2.3-2.9,3.1c-1.9,1.3-3.9,1.2-5.8,0.1c-2-1.2-3.4-2.9-4.4-5c-0.9-1.9-1.5-4-1.8-6.1c-1-5.3-1.2-10.7-0.9-16.1
				c0-1,0-2,0.1-2.9c0.2-5.3,0.7-10.6,2.1-15.8c0.3-1.1,0.7-2.3,1.1-3.3c0.2-0.6,0.6-1.2,1.1-1.7c1.2-1.4,2.9-1.9,4.7-1.3
				c1.6,0.5,2.4,1.7,2.5,3.3c0.1,1.3,0,2.6,0,4c-0.1,1.4-0.2,2.7-0.3,4.1c-0.3,3.3-0.5,6.7-0.8,10c-0.4,5.8-0.7,11.5-0.3,17.3
				c0.2,1.9,0.3,3.8,0.6,5.7c0.1,0.9,0.5,1.8,0.7,2.7c0.1,0.2,0.2,0.4,0.3,0.5c0.4,0.6,0.8,0.7,1.4,0.2c0.4-0.4,0.9-0.9,1.2-1.4
				c0.6-1,1.1-2,1.5-3.1c2.1-4.8,4.1-9.7,6.2-14.5c0.2-0.5,0.3-1,0.3-1.5c0-4.7,0.1-9.3,0.5-14c0.1-1.6,0.3-3.2,0.8-4.8
				c0.7-2.3,3.4-3.6,5.6-2.7c0.8,0.3,1.4,0.9,1.8,1.7c0.7,1.2,1,2.6,1.1,3.9c0.2,2,0.3,3.9,0.3,5.9c0.1,3.6,0,7.2,0.1,10.8
				c0,1.7,0.2,3.5,0.2,5.2c0.1,0,0.1,0,0.2,0c0.1-0.3,0.3-0.6,0.4-0.9c1-2.3,2.1-4.5,3.7-6.5c1.8-2.3,4-4.2,6.7-5.4
				c1.7-0.7,3.5-1.1,5.3-0.6c2.2,0.5,3.9,1.8,5.2,3.6c1.3,1.7,1.9,3.7,2.3,5.8c0.4,1.8,0.6,3.7,0.7,5.5c0.1,3.6,0.1,7.1,0.2,10.7
				c0.1,4,0.2,8.1,0.4,12.1c0.1,1.6,0.3,3.2,0.4,4.8c0,0.1,0,0.2,0,0.3c0.1,0.4,0.3,0.6,0.6,0.7c0.4,0.1,0.6-0.2,0.8-0.5
				c1.3-2.3,2.3-4.7,3.3-7.1c2.4-6.2,4.1-12.6,5.4-19.2c0.2-0.8,0.3-1.5,0.4-2.3c0-0.1,0-0.1,0-0.2c-0.2-0.2-0.5-0.4-0.7-0.6
				c-1.7-1.5-3.4-2.9-5.1-4.4c-1.8-1.6-3.3-3.3-4.4-5.4c-0.9-1.7-1.5-3.4-1.5-5.4c0.1-3.3,2.9-6.2,6.2-6.4c2.3-0.1,4.2,0.7,5.8,2.4
				c1.8,1.9,2.9,4.2,3.4,6.7c0.3,1.4,0.5,2.9,0.6,4.3c0.1,0.7,0.3,1.1,0.9,1.5c2.1,1.5,4.2,3.1,6.3,4.6c0.1,0.1,0.2,0.1,0.3,0.2
				c0.1-0.1,0.2-0.1,0.2-0.2c2.8-5.2,6.2-10.1,9.6-14.9c0.8-1.1,1.6-2.3,2.4-3.4c0.3-0.4,0.4-0.8,0.4-1.2c0-4.2,0.1-8.4,0.4-12.5
				c0.1-1.5,0.4-3,0.7-4.4c0.3-1.4,1.1-2.6,2.4-3.2c1.8-0.9,3.6-0.3,4.5,1.5c0.5,1,0.7,2.1,0.7,3.3c0.1,1.4,0.2,2.9,0.2,4.3
				c0.1,2.3,0.1,4.5,0.2,6.8c0,0.2,0,0.5,0.1,0.9c0.3-0.4,0.5-0.6,0.6-0.8c0.9-1.2,1.8-2.3,3-3.2c2.7-2.1,5.8-3,9.2-2
				c1.7,0.5,3.1,1.4,4.2,2.8c1.6,1.9,2.6,4.1,3,6.5c1,6.3-0.3,12.1-3.7,17.5c-1.6,2.6-3.7,4.8-6.1,6.7c-2.3,1.8-4.9,3-7.8,3.1
				c-0.1,0-0.2,0-0.3,0c-0.1,0-0.1,0-0.2,0.1c0.1,0.6,0.1,1.3,0.3,1.9c0.8,4.6,1.6,9.3,2.3,13.9c0.1,0.6,0.1,1.2,0.1,1.8
				c0,2.3-1.7,3.8-4.1,3.7c-1.6-0.1-2.7-0.9-3.3-2.4c-0.6-1.5-1-3-1.4-4.5c-0.6-3-1.1-6-1.7-9c-0.5-2.7-1-5.5-1.4-8.2
				c-0.4-2.4-0.7-4.7-0.9-7.1c-0.3-2.6-0.5-5.2-0.6-7.8c-0.1-1.2,0-2.5-0.1-3.7c0-0.2,0-0.4,0-0.7c-1.1,1-9.6,14.8-10.3,16.8
				c0.2,0.1,0.4,0.3,0.6,0.5c3.1,3,5.7,6.5,7.8,10.3c1.9,3.4,2.3,7.1,1.9,10.9c-0.2,2-0.7,3.9-1.5,5.7c-1.2,2.9-3.3,4.9-6.2,6
				c-3.1,1.1-7.2,0.3-9.4-3.1c-1.1-1.8-1.7-3.8-2-5.8c-0.7-4.4-0.1-8.8,0.9-13.1c0.4-1.6,0.9-3.1,1.3-4.7c-1.4-1.3-2.9-2.6-4.5-3.9
				c-0.3,1.5-0.6,2.9-0.9,4.3c-1.6,6.7-3.5,13.3-6.4,19.6c-0.8,1.6-1.7,3.2-2.7,4.8c-0.7,1.2-1.7,2.2-2.8,3.1
				c-0.8,0.6-1.7,1-2.7,1.1c-1.9,0.2-3.4-0.5-4.6-1.9c-0.9-1-1.5-2.2-2-3.5c-0.9-2.4-1.4-4.9-1.7-7.4c-0.5-4.3-0.6-8.6-0.7-13
				c0-3.3,0-6.6-0.1-9.9c0-2.3-0.1-4.5-0.6-6.8c-0.2-0.9-0.5-1.8-1-2.6c-0.6-0.8-1-0.9-1.9-0.6c-0.9,0.3-1.7,0.9-2.4,1.5
				c-1.6,1.4-2.9,3.1-3.9,4.9c-1.8,3.1-3,6.5-3.9,9.9c-1.1,4.1-1.7,8.3-2,12.5c-0.1,2-0.2,4.1-0.2,6.1c0,1.5-1.2,2.6-2.7,2.5
				c-0.7,0-1.2-0.3-1.5-0.9c-0.2-0.6-0.5-1.2-0.7-1.8c-1.5-5.2-2.4-10.4-3-15.8c-0.4-3.2-0.6-6.4-0.9-9.6c0-0.1,0-0.2,0-0.3
				C130.6,176.3,130.5,176.3,130.5,176.3z M211.9,179.6c1.4-0.3,2.7-0.7,3.7-1.6c1.3-1.2,2.4-2.5,3.2-4.1c0.9-1.7,1.6-3.6,2.2-5.5
				c0.9-3,1.4-6,1.7-9.1c0.2-2,0.3-3.9,0-5.9c-0.2-1-0.4-2.1-0.8-3.1c-0.5-1.3-1.5-1.9-2.9-1.9c-1.3,0-2.5,0.4-3.5,1.3
				c-3.3,3-5,6.8-5,11.3c0.1,5.4,0.4,10.9,1,16.3C211.7,178.2,211.8,178.9,211.9,179.6z M187.2,186.5c-0.4,1.5-0.8,2.9-1.1,4.3
				c-0.7,3.4-1.1,6.8-0.4,10.3c0.3,1.7,0.8,3.3,1.9,4.7c0.6,0.7,1.3,1.4,2.2,1.7c1.1,0.4,1.8,0.3,2.6-0.6c0.9-1,1.5-2.2,1.8-3.6
				c0.6-3,0.2-5.9-1.1-8.7c-1.4-2.8-3.2-5.3-5.3-7.6C187.6,186.8,187.4,186.7,187.2,186.5z M177.5,167.1c-0.1-2.7-0.7-5.1-2-7.3
				c-0.5-0.8-1.1-1.5-1.9-2c-0.5-0.3-1.1-0.5-1.6-0.6c-0.8-0.1-1.5,0.1-1.9,0.8c-0.5,0.7-0.7,1.5-0.2,2.3c0.5,0.8,1.1,1.5,1.7,2.2
				c1.4,1.2,2.8,2.4,4.3,3.5C176.4,166.4,176.9,166.7,177.5,167.1z"/>
                <path class="st8" d="M254.4,153.1c1.5,0.2,3,0.5,4.5,0.7c2.3,0.4,4.6,0.8,6.9,1.2c0.4,0.1,0.7,0.2,1.1,0.3c3,0.9,5,2.9,5.8,5.9
				c0.7,2.5,0.9,5,0.8,7.5c-0.1,3.6-0.4,7.2-0.4,10.8c-0.1,5.5-0.2,11.1-0.1,16.6c0,3.3,0.3,6.5,0.8,9.7c0.2,1.1,0.4,2.2,1.2,3.2
				c0.2-0.5,0.4-0.8,0.5-1.2c0.4-1.7,0.8-3.4,1-5.2c0.5-5,0.8-10,1.2-14.9c0.2-3,0.4-6.1,0.6-9.1c0-0.5,0-1-0.2-1.4
				c-0.9-3.1-1.4-6.3-1.4-9.5c0-3.5,0.7-6.8,2-10c0.7-1.8,1.7-3.4,3.1-4.7c1.9-1.7,4-2.7,6.6-2.6c3.7,0.1,6.7,2.8,7.2,6.5
				c0.2,1.7-0.1,3.3-0.8,4.8c-1.1,2.4-2.8,4.2-5.1,5.5c-1.1,0.6-2.3,1-3.4,1.6c-0.3,0.1-0.5,0.2-0.8,0.3c0,0.2,0.1,0.4,0.1,0.6
				c0.9,3.8,2.4,7.3,4.3,10.7c0.6,1,1.3,2,2.1,2.9c0.4,0.5,1,0.9,1.5,1.3c1.5,1.1,3.2,1.2,5,0.5c1.5-0.6,2.8-1.6,3.9-2.8
				c3-3.4,4.9-7.4,6.2-11.7c0.9-3,1.6-6,2.2-9.1c0.1-0.5,0-0.9-0.5-1.2c-2.6-2.1-5.1-4.1-7.6-6.3c-1.5-1.3-2.8-2.7-4-4.3
				c-1.3-1.7-2.4-3.6-2.8-5.8c-1-5.8,3.7-9.4,8.3-8.8c3,0.3,5.3,1.9,7,4.3c1.5,2.1,2.4,4.5,2.9,7c0.4,2,0.6,4.1,0.6,6.2
				c0,0.5,0.2,0.8,0.6,1.2c2.5,1.8,4.9,3.6,7.4,5.4c0.2,0.1,0.3,0.2,0.5,0.4c0.3-0.2,0.5-0.5,0.7-0.7c1.9-1.8,4-3.2,6.5-3.9
				c1.6-0.4,3.2-0.6,4.8-0.2c2.8,0.6,4.6,2.2,5.4,5c0.4,1.3,0.6,2.7,0.6,4.1c0,0.4-0.1,0.8-0.2,1.2c-0.2,0.7-0.7,1-1.4,1
				c-0.7,0-1.2-0.3-1.3-1.1c-0.2-1.1-0.4-2.3-0.6-3.5c-0.1-0.5-0.2-1-0.4-1.5c-0.8-2.2-2.6-3.2-4.9-2.8c-1.2,0.2-2.3,0.7-3.3,1.3
				c-0.7,0.4-1.3,0.9-1.9,1.4c-0.6,0.5-1.1,1-1.7,1.6c0.2,0.2,0.3,0.4,0.5,0.5c0.7,0.6,1.4,1.3,2,1.9c4.1,4,6.6,8.9,7.8,14.4
				c1,4.6,0.5,9.1-1.1,13.5c-1,2.8-2.3,5.5-4.2,7.8c-0.4,0.5-0.9,1-1.3,1.4c-3.1,3.1-6.9,4.1-11.1,3.6c-2-0.3-3.6-1.4-4.8-3
				c-1.1-1.5-1.6-3.2-2-5c-0.6-2.9-0.5-5.9-0.1-8.8c1-7.3,3.2-14.2,6.7-20.7c0.1-0.1,0.1-0.2,0.2-0.4c-1.4-1.2-2.8-2.4-4.3-3.7
				c-0.1,0.5-0.2,0.9-0.3,1.3c-1.3,5.8-3.2,11.4-6.1,16.6c-1.6,2.8-3.6,5.4-6,7.5c-4.6,4.1-10.8,4.1-15.6,0.5
				c-1.7-1.2-3.1-2.7-4.3-4.5c-0.1-0.2-0.3-0.4-0.4-0.6c0,0-0.1,0-0.2,0c0,0.2-0.1,0.4-0.1,0.5c-0.1,3.1-0.2,6.1-0.4,9.2
				c-0.2,4.5-0.6,9.1-1.7,13.5c-0.2,1.1-0.7,2.1-1.1,3.1c-0.4,0.9-1.2,1.7-2.1,2.1c-1.1,0.5-2.2,0.5-3.2-0.2
				c-0.6-0.4-1.2-0.9-1.7-1.5c-1.5-1.8-2.5-3.9-3.3-6c-1.3-3.6-2.1-7.4-2.5-11.2c-0.8-6.9-1-13.8-0.8-20.7c0.1-3.2,0.4-6.3,0.6-9.5
				c0.1-1.3,0.1-2.6,0.1-3.9c0-1-0.2-1.3-1.2-1.5c-0.9-0.2-1.8-0.4-2.7-0.5c-1.7-0.2-3.5-0.3-5.3-0.5c0,0.3,0,0.5,0,0.7
				c0.6,5.2,0.7,10.5,0.4,15.7c-0.4,7.4-1.7,14.5-4,21.5c-0.4,1.2-0.9,2.4-1.5,3.5c-0.5,0.8-1.1,1.7-1.8,2.3c-2.1,2-5.3,2.5-8,0
				c-1.1-1.1-2-2.3-2.7-3.7c-1.3-2.4-2.1-4.9-2.8-7.6c-1.2-5-1.9-10-1.6-15.2c0.1-2,0.3-3.9,0.6-5.9c0.3-1.8,1.2-3.1,3.1-3.5
				c2-0.4,3.7,0.2,4.9,1.8c1,1.3,1.4,2.9,1.6,4.5c0.3,1.9,0.5,3.8,0.7,5.8c0.4,4.6,0.8,9.1,1.7,13.6c0.4,1.9,0.9,3.8,1.8,5.8
				c0.2-0.4,0.3-0.6,0.4-0.9c1.2-2.8,1.9-5.6,2.5-8.6c1.3-6.4,1.9-12.8,1.8-19.3c-0.1-3.5-0.2-7-0.6-10.5c0-0.2-0.1-0.4-0.1-0.7
				c-0.8-0.2-1.6-0.4-2.5-0.6c-2.4-0.6-4.6-1.5-6.7-2.9c-2.6-1.7-4.6-3.9-5.6-6.9c-0.5-1.4-0.8-2.9-0.5-4.5c0.6-3,3-4.7,6.1-4.3
				c1.6,0.2,3,0.9,4.3,1.9c1.4,1.1,2.5,2.5,3.5,4c1.8,2.8,3,5.9,3.9,9.1C254.2,152.4,254.3,152.7,254.4,153.1z M320.1,169
				c-0.2,0.3-0.3,0.6-0.4,0.8c-1.8,3.8-3.2,7.8-4.2,11.9c-0.8,3.4-1.5,6.9-1.4,10.5c0,1.7,0.3,3.4,0.9,5c0.4,1.2,1.1,2.3,2.2,3.1
				c1.4,1.1,2.6,1.1,4,0.2c1.2-0.8,2.1-1.7,2.9-2.9c3.2-5,4.4-10.4,3.1-16.2c-1-4.7-3.4-8.7-6.7-12.2
				C320.4,169.1,320.3,169.1,320.1,169z M311.2,150.8c0-0.2,0-0.3,0-0.4c-0.1-2.3-0.4-4.6-1.2-6.8c-0.6-1.8-1.4-3.4-2.6-4.7
				c-0.9-1-2-1.6-3.3-1.9c-1.6-0.3-2.7,0.4-3.2,1.9c-0.2,0.6-0.2,1.2-0.2,1.8c0.1,1.3,0.8,2.3,1.7,3.2c1,1,2,2.1,3.1,2.9
				c1.7,1.3,3.5,2.5,5.2,3.7C310.9,150.6,311,150.7,311.2,150.8z M284.7,167c1.7-0.6,3.1-1.2,4.4-2.3c2.2-1.9,3.4-4.3,3.2-7.3
				c-0.1-1.4-0.6-2.6-1.7-3.4c-1.5-1.2-2.4-1.1-3.7,0.2c-0.7,0.7-1.2,1.6-1.5,2.5c-0.6,1.4-0.8,2.9-1,4.3
				C284.2,163,284.3,164.9,284.7,167z M250.9,152.2c-0.1-0.4-0.1-0.7-0.2-1c-0.7-1.6-1.3-3.3-2-4.9c-0.4-0.9-1-1.6-1.6-2.4
				c-0.4-0.5-0.9-0.9-1.5-1.2c-0.4-0.3-0.9-0.4-1.5-0.3c-1,0.2-1.6,1.3-1.3,2.4c0.2,0.9,0.6,1.8,1.2,2.6
				C245.8,149.6,248,151.1,250.9,152.2z"/>
                <path class="st8" d="M118.8,137.1c0,2-1.5,3.5-3.5,3.6c-1.9,0-3.4-1.5-3.4-3.4c0-2,1.6-3.7,3.5-3.7
				C117.3,133.6,118.8,135.2,118.8,137.1z"/>
                <path class="st8" d="M237.9,162.4c-1.9,0-3.4-1.6-3.4-3.4c0-1.9,1.5-3.4,3.4-3.4c1.9,0,3.5,1.6,3.5,3.5
				C241.2,160.9,239.7,162.4,237.9,162.4z"/>
		</g>
	</g>
</g>
</svg>
